<svg version="1.1" id="Layer_1" xmlns="http://www.w3.org/2000/svg" xmlns:xlink="http://www.w3.org/1999/xlink" x="0px" y="0px"
	 width="100%" viewBox="0 0 3702 1700" enable-background="new 0 0 3702 1700" xml:space="preserve">
<path fill="#FFFFFF" opacity="1.000000" stroke="none" 
	d="
M2244.000000,1702.000000 
	C1496.000000,1702.000000 749.000000,1702.000000 2.000000,1702.000000 
	C2.000000,1135.333374 2.000000,568.666687 2.000000,2.000000 
	C1236.000000,2.000000 2470.000000,2.000000 3704.000000,2.000000 
	C3704.000000,568.666687 3704.000000,1135.333374 3704.000000,1702.000000 
	C3217.666748,1702.000000 2731.333252,1702.000000 2244.000000,1702.000000 
M2599.445312,1030.356445 
	C2573.660645,1052.297241 2563.297607,1080.890991 2568.751465,1113.415771 
	C2576.355225,1158.759399 2617.103516,1193.119873 2668.741943,1185.464722 
	C2713.670898,1178.804077 2742.073486,1143.861328 2743.615723,1100.047607 
	C2744.679199,1069.829468 2731.644043,1044.620361 2707.194580,1027.212280 
	C2673.447510,1003.184448 2633.138916,1004.734741 2599.445312,1030.356445 
M3405.655518,1414.893921 
	C3413.105469,1408.821899 3421.757812,1403.747559 3427.778809,1396.489990 
	C3445.565918,1375.050171 3453.414551,1350.407227 3448.016602,1322.316406 
	C3443.164795,1297.067383 3429.820801,1277.616089 3408.151611,1264.097168 
	C3389.191406,1252.268433 3368.693359,1247.529297 3346.295166,1251.866943 
	C3326.347412,1255.730225 3309.119629,1264.458984 3295.782959,1279.725586 
	C3280.562744,1297.149048 3273.224609,1317.531372 3273.762695,1341.024658 
	C3274.431885,1370.239258 3287.104980,1393.162720 3310.122559,1409.744385 
	C3339.856201,1431.164185 3371.845215,1431.516113 3405.655518,1414.893921 
M2739.119873,1357.784058 
	C2740.209717,1352.608154 2741.411621,1347.452881 2742.369873,1342.252686 
	C2746.873779,1317.809448 2740.274170,1295.619019 2725.238770,1276.911743 
	C2704.045166,1250.541992 2676.207764,1238.373657 2641.696533,1243.803223 
	C2594.348633,1251.252319 2560.298828,1293.623047 2568.752930,1345.498169 
	C2576.166016,1390.987549 2617.261719,1425.057983 2668.778320,1417.429565 
	C2702.890137,1412.378418 2726.732422,1392.394775 2739.119873,1357.784058 
M1895.176392,1399.972900 
	C1912.642578,1412.813843 1931.877197,1419.338013 1953.880005,1418.222412 
	C1978.910522,1416.953125 1999.940430,1407.174438 2015.858154,1388.434937 
	C2033.887939,1367.208984 2041.264893,1342.332764 2036.037964,1314.213623 
	C2028.477905,1273.542603 1993.540283,1242.940063 1950.968750,1242.422241 
	C1919.493286,1242.039429 1893.744385,1255.365845 1875.940308,1282.171387 
	C1862.128052,1302.967041 1858.875244,1325.786255 1863.706909,1349.904175 
	C1867.727051,1369.971069 1878.870483,1385.808838 1895.176392,1399.972900 
M1203.421875,1252.224609 
	C1190.189087,1258.515259 1179.714233,1267.996338 1171.351562,1279.927124 
	C1156.798950,1300.689087 1152.740723,1323.806641 1157.313843,1348.292969 
	C1164.910645,1388.971436 1204.544678,1420.478516 1245.771606,1418.342651 
	C1271.585327,1417.005249 1293.299194,1407.766968 1309.766602,1388.522217 
	C1327.866455,1367.369385 1335.225342,1342.483521 1330.080444,1314.345825 
	C1325.839355,1291.151611 1313.999756,1272.413208 1295.249023,1259.277344 
	C1267.086670,1239.548584 1236.454956,1236.365234 1203.421875,1252.224609 
M1912.804199,1178.394409 
	C1925.255127,1184.866943 1938.571777,1186.455078 1952.435425,1186.180420 
	C1977.916260,1185.675659 1999.273926,1175.658081 2015.553101,1156.764282 
	C2033.994141,1135.361328 2041.454834,1110.118652 2035.959351,1081.684814 
	C2028.101562,1041.029419 1993.098999,1010.677429 1950.451294,1010.426941 
	C1919.003906,1010.242188 1893.391724,1023.690552 1875.665161,1050.594116 
	C1862.306763,1070.868408 1858.768066,1093.170776 1863.447510,1116.431885 
	C1869.108887,1144.573120 1885.747559,1164.902710 1912.804199,1178.394409 
M1260.476440,1012.083435 
	C1255.556641,1011.426331 1250.619385,1010.095093 1245.719727,1010.221436 
	C1213.854858,1011.043640 1187.849854,1023.165710 1169.814819,1050.342041 
	C1156.405884,1070.547485 1152.947021,1092.822510 1157.282349,1116.147461 
	C1164.899902,1157.130981 1204.646484,1188.402832 1245.580811,1186.345825 
	C1271.384277,1185.049438 1293.115234,1175.866211 1309.624634,1156.681519 
	C1328.042114,1135.279297 1335.593140,1109.994995 1329.921509,1081.607300 
	C1326.585938,1064.911499 1319.142090,1050.513916 1307.356201,1038.028931 
	C1294.803589,1024.731934 1279.606445,1016.694275 1260.476440,1012.083435 
M434.226105,1111.179810 
	C439.058075,1086.385620 432.462952,1063.883301 417.207275,1044.881714 
	C396.031342,1018.506592 368.170197,1006.376587 333.677734,1011.806641 
	C286.376709,1019.253052 252.225510,1061.598145 260.756348,1113.480713 
	C268.920105,1163.130859 316.658508,1196.631226 369.487793,1183.687988 
	C404.163818,1175.192505 428.930939,1146.789795 434.226105,1111.179810 
M2669.072998,771.800598 
	C2665.147949,771.237244 2661.203857,770.080811 2657.300537,770.204041 
	C2625.439209,771.210266 2599.550049,783.456360 2581.602783,810.696350 
	C2568.450195,830.659668 2564.955566,852.678772 2569.139404,875.583496 
	C2576.725830,917.115906 2616.413574,948.533386 2657.984375,946.328979 
	C2683.384521,944.982117 2704.965576,936.043091 2721.216309,917.119446 
	C2744.512451,889.991699 2750.636963,858.380798 2736.944336,825.069397 
	C2724.930908,795.842590 2702.326904,777.835693 2669.072998,771.800598 
M1984.822998,777.923462 
	C1966.919678,770.169128 1948.360718,767.730164 1929.406738,772.661133 
	C1883.136597,784.698486 1855.266479,824.504211 1862.689819,872.911743 
	C1869.715088,918.723755 1911.370239,953.412720 1963.199097,945.407166 
	C2010.124390,938.158997 2038.756104,899.963196 2037.521973,855.630127 
	C2036.535522,820.196716 2018.061157,794.375732 1984.822998,777.923462 
M1172.939941,806.016357 
	C1155.980591,828.535278 1152.130981,853.845215 1158.297729,880.684570 
	C1162.181274,897.586609 1171.602417,911.561707 1184.318848,923.547485 
	C1213.016479,950.596069 1257.551270,953.136658 1288.854004,933.976257 
	C1312.681641,919.391357 1326.194580,898.125366 1330.514893,870.396118 
	C1334.342773,845.827271 1328.309692,823.713928 1313.301636,804.987671 
	C1292.138428,778.581299 1264.275269,766.190735 1229.774414,771.835815 
	C1206.798706,775.595154 1187.829712,785.990234 1172.939941,806.016357 
M1925.930054,455.612183 
	C1934.822998,456.439880 1943.713257,457.934326 1952.609253,457.968750 
	C1978.087891,458.067383 1999.421387,447.552216 2015.658325,428.646118 
	C2034.056519,407.223572 2041.497559,381.957764 2035.940674,353.545624 
	C2027.980713,312.845917 1992.943726,282.618103 1950.338013,282.428040 
	C1918.904419,282.287781 1893.292114,295.728058 1875.621216,322.677032 
	C1862.319702,342.962891 1858.546875,365.284546 1863.496094,388.498718 
	C1870.682251,422.204895 1892.005249,443.930023 1925.930054,455.612183 
M2602.994629,299.910034 
	C2596.718018,306.245850 2589.693848,312.007782 2584.305908,319.025848 
	C2568.575928,339.515533 2564.680420,363.197174 2569.254395,388.014099 
	C2576.851562,429.230042 2616.688477,460.370972 2657.497803,458.344543 
	C2683.306885,457.062958 2705.061035,447.910339 2721.592041,428.719574 
	C2740.031982,407.312531 2747.472656,382.044189 2741.949219,353.616241 
	C2734.044678,312.933929 2699.010254,283.221344 2656.364990,282.278717 
	C2637.335205,281.858063 2619.758545,287.912811 2602.994629,299.910034 
M3395.348145,297.492279 
	C3377.729492,289.726715 3359.455078,287.939850 3340.897461,292.827911 
	C3295.372314,304.819031 3267.475830,344.120850 3274.619873,392.454071 
	C3281.458984,438.720886 3323.661865,473.574615 3375.732178,465.390442 
	C3427.647949,457.230469 3457.073486,407.809357 3447.995850,362.321625 
	C3441.958008,332.065857 3424.526367,310.932892 3395.348145,297.492279 
M856.195618,1326.490479 
	C843.198914,1326.478149 830.197144,1326.668335 817.208252,1326.343750 
	C812.644470,1326.229858 807.724976,1325.723022 803.632629,1323.901855 
	C785.672424,1315.909790 775.369873,1302.605103 775.460205,1282.078857 
	C775.649475,1239.089478 775.498962,1196.098511 775.516907,1153.108276 
	C775.524231,1135.369385 770.995850,1119.558105 756.779724,1107.664429 
	C755.260498,1106.393433 754.295410,1104.460083 752.370789,1101.899170 
	C784.159912,1101.899170 814.474609,1101.904053 844.789246,1101.890747 
	C847.451538,1101.889526 850.143860,1101.976929 852.761414,1101.600342 
	C853.828369,1101.446655 855.598694,1100.076660 855.531494,1099.413696 
	C855.390137,1098.020020 854.491455,1095.850586 853.465393,1095.562866 
	C850.648499,1094.773071 847.605835,1094.536987 844.651306,1094.529175 
	C818.657349,1094.460327 792.663086,1094.513306 766.669067,1094.459595 
	C763.217896,1094.452393 759.767578,1094.049805 756.609253,1093.848877 
	C756.437927,1092.197144 756.282898,1091.829346 756.395447,1091.585083 
	C756.805115,1090.696777 757.117065,1089.647705 757.797302,1089.016602 
	C771.834839,1075.991943 775.623474,1059.307373 775.560913,1040.983398 
	C775.408569,996.327271 776.099060,951.659912 775.299744,907.017700 
	C774.827393,880.635010 797.386353,861.006104 820.913330,861.854065 
	C829.566650,862.165894 838.240967,861.915955 846.905518,861.885803 
	C848.899292,861.878906 850.962036,861.999207 852.858337,861.523743 
	C853.889648,861.265198 855.224243,859.953491 855.351440,858.977112 
	C855.483643,857.963013 854.587097,856.220276 853.673645,855.792419 
	C851.946655,854.983276 849.889404,854.573059 847.962524,854.549072 
	C838.966187,854.436890 829.932312,854.030701 820.981323,854.682739 
	C814.430176,855.159973 807.692383,856.310669 801.547485,858.555969 
	C777.900391,867.196594 767.711670,889.593201 767.930237,909.073547 
	C768.457520,956.056946 768.209106,1003.050842 768.036133,1050.039551 
	C767.973816,1066.959473 760.490906,1080.064087 746.004822,1089.005005 
	C738.329163,1093.742432 729.845337,1094.546875 721.030823,1094.538330 
	C632.051025,1094.453003 543.071045,1094.486572 454.091095,1094.494995 
	C451.093353,1094.495361 448.011383,1094.178223 445.128876,1094.778442 
	C443.346008,1095.149658 441.866516,1096.977783 440.181183,1098.202637 
	C444.097412,1103.556519 448.824280,1101.820190 452.889069,1101.824707 
	C542.202148,1101.923218 631.515320,1101.933350 720.828491,1101.867798 
	C734.085327,1101.858154 745.480042,1105.597778 755.040222,1115.312256 
	C764.023071,1124.440063 768.095642,1135.123413 768.096436,1147.666260 
	C768.099243,1192.989380 768.142578,1238.312378 768.097534,1283.635498 
	C768.073669,1307.610840 788.293762,1331.365356 813.912109,1333.537842 
	C829.465149,1334.856445 845.217285,1333.897217 860.878357,1333.765015 
	C862.528259,1333.751099 864.167053,1332.409424 865.680664,1331.741333 
	C864.882690,1326.386841 861.295105,1326.669800 856.195618,1326.490479 
M1946.636963,634.079529 
	C1937.595215,611.955383 1928.553345,589.831177 1919.722046,568.222046 
	C1913.379761,568.222046 1907.927368,568.222046 1902.551758,568.222046 
	C1902.551758,599.174805 1902.551758,629.371643 1902.551758,659.749268 
	C1907.142334,659.749268 1911.284546,659.749268 1915.683960,659.749268 
	C1916.033813,638.820984 1915.461426,618.504761 1916.020020,598.224548 
	C1916.771240,598.104309 1917.522461,597.984070 1918.273804,597.863892 
	C1926.810425,618.596802 1935.347168,639.329712 1943.799438,659.857666 
	C1948.039185,659.857666 1951.586914,659.857666 1955.254395,659.857666 
	C1958.201538,652.761719 1961.034302,646.033203 1963.792603,639.274170 
	C1966.682739,632.192322 1969.271606,624.977478 1972.418457,618.013367 
	C1975.274414,611.693237 1976.834473,604.598694 1981.176880,599.068176 
	C1981.982422,599.286133 1982.787964,599.504089 1983.593506,599.721985 
	C1983.593506,619.840576 1983.593506,639.959229 1983.593506,659.732910 
	C1988.615356,659.732910 1992.454834,659.732910 1996.294678,659.732910 
	C1996.294678,628.864990 1996.294678,598.667236 1996.294678,568.038086 
	C1990.451050,568.038086 1985.000000,568.038086 1979.558960,568.038086 
	C1969.134766,591.694641 1960.579712,615.604675 1949.550415,639.629456 
	C1948.282593,637.253235 1947.815308,636.377380 1946.636963,634.079529 
M2989.359131,1308.619019 
	C3005.224121,1293.188232 3019.977295,1295.780640 3034.677246,1316.240967 
	C3039.131348,1316.240967 3043.291260,1316.240967 3048.355225,1316.240967 
	C3043.863281,1299.719604 3033.972900,1290.063965 3018.229492,1286.968506 
	C3001.897461,1283.757324 2987.779297,1288.182129 2977.358398,1301.627075 
	C2964.251709,1318.537476 2964.402344,1349.363647 2977.350586,1366.436646 
	C2988.727051,1381.437256 3011.256836,1386.444458 3028.814453,1377.874512 
	C3044.890625,1370.027710 3052.472900,1351.744873 3047.413818,1333.283203 
	C3035.825684,1333.283203 3024.289551,1333.283203 3012.479492,1333.283203 
	C3012.479492,1337.144897 3012.479492,1340.388184 3012.479492,1344.723145 
	C3019.981689,1344.723145 3027.117432,1344.723145 3034.250244,1344.723145 
	C3033.776367,1357.685547 3028.221436,1365.241333 3018.003174,1367.859863 
	C3002.669678,1371.788940 2988.707275,1364.414795 2984.182373,1349.227783 
	C2980.148193,1335.687622 2980.451904,1322.277954 2989.359131,1308.619019 
M2319.052490,1128.667480 
	C2303.356201,1136.266235 2287.908203,1132.939331 2280.897949,1119.399780 
	C2273.587646,1105.280396 2273.519287,1090.437256 2280.964600,1076.246216 
	C2290.302490,1058.447632 2317.270508,1059.136230 2325.393066,1075.495361 
	C2326.264404,1077.250488 2327.349365,1078.899414 2328.226318,1080.410156 
	C2332.873535,1080.410156 2337.071777,1080.410156 2341.802490,1080.410156 
	C2341.537842,1078.583496 2341.544189,1077.273315 2341.148193,1076.098755 
	C2335.912842,1060.576538 2322.548828,1050.788818 2305.697998,1050.065063 
	C2288.183105,1049.312866 2273.058105,1058.155518 2266.459473,1073.845459 
	C2260.000488,1089.203125 2259.700195,1105.015991 2265.831055,1120.559082 
	C2273.930176,1141.092041 2295.911377,1150.761719 2317.827148,1143.872559 
	C2336.695312,1137.941406 2346.343994,1119.111816 2341.462402,1096.667358 
	C2332.041016,1096.667358 2322.443359,1096.636353 2312.846191,1096.693237 
	C2310.903320,1096.704712 2308.962646,1097.047974 2306.727051,1097.266968 
	C2306.727051,1101.085205 2306.727051,1104.500854 2306.727051,1108.729004 
	C2314.209229,1108.729004 2321.083252,1108.729004 2328.230469,1108.729004 
	C2329.173828,1117.181763 2325.853516,1122.914673 2319.052490,1128.667480 
M1624.559326,1331.547607 
	C1625.921509,1329.281982 1627.605103,1327.147827 1628.594727,1324.729736 
	C1635.982422,1306.678467 1626.789795,1286.873901 1608.505249,1284.578003 
	C1594.569946,1282.828003 1580.238647,1284.230347 1566.168945,1284.230347 
	C1566.168945,1315.131592 1566.168945,1345.588135 1566.168945,1375.789307 
	C1570.961914,1375.789307 1575.169678,1375.789307 1580.300537,1375.789307 
	C1580.300537,1364.031982 1580.300537,1352.880249 1580.300537,1341.790771 
	C1587.197144,1341.790771 1593.150879,1341.790771 1599.527222,1341.790771 
	C1605.902954,1353.414917 1612.251465,1364.989380 1618.520386,1376.418945 
	C1624.001099,1375.985840 1628.897461,1377.433716 1633.708130,1375.203735 
	C1627.108398,1362.997314 1620.803101,1351.335449 1614.526245,1339.725952 
	C1617.870972,1337.101196 1620.706543,1334.875977 1624.559326,1331.547607 
M2260.870605,1321.937500 
	C2261.320801,1329.851196 2260.788086,1337.973511 2262.414062,1345.637817 
	C2266.521729,1365.001587 2282.237793,1377.505981 2301.440918,1377.886597 
	C2321.020020,1378.274414 2336.526611,1366.842773 2342.076904,1347.630859 
	C2345.571777,1335.533691 2345.472900,1323.268433 2341.845459,1311.261963 
	C2335.684814,1290.872314 2316.119385,1278.931641 2295.412354,1282.485107 
	C2276.868408,1285.667480 2264.973145,1298.786987 2260.870605,1321.937500 
M1558.370850,1075.498413 
	C1553.941406,1087.697754 1553.184326,1100.121216 1556.024048,1112.785156 
	C1560.363037,1132.135498 1575.515503,1145.158081 1594.572021,1145.868042 
	C1614.628540,1146.615112 1630.485840,1135.112915 1636.119141,1115.461792 
	C1639.593262,1103.342529 1639.572266,1091.026123 1635.743896,1079.080322 
	C1631.322510,1065.284912 1622.311279,1055.583008 1607.922119,1051.590576 
	C1587.690430,1045.977173 1569.812866,1054.218140 1558.370850,1075.498413 
M989.447266,1134.502563 
	C1005.696533,1118.122437 1006.822083,1098.598755 1000.451660,1077.997681 
	C995.907471,1063.302124 985.053772,1054.186768 970.101807,1052.471680 
	C956.700684,1050.934326 942.983948,1052.147949 929.062744,1052.147949 
	C929.062744,1082.809204 929.062744,1113.226562 929.062744,1144.388184 
	C940.197937,1144.388184 950.808350,1144.411987 961.418579,1144.381226 
	C971.372070,1144.352417 980.448853,1141.628540 989.447266,1134.502563 
M2331.087891,335.449707 
	C2331.601807,331.709839 2332.115723,327.969971 2332.675049,323.900787 
	C2312.511230,323.900787 2293.633789,323.900787 2274.591309,323.900787 
	C2274.591309,354.816833 2274.591309,385.289246 2274.591309,415.804108 
	C2294.323975,415.804108 2313.492188,415.804108 2333.334229,415.804108 
	C2333.137695,411.687622 2332.971680,408.211212 2332.774658,404.081879 
	C2317.542236,404.081879 2303.287109,404.081879 2288.656738,404.081879 
	C2288.656738,394.495331 2288.656738,385.619720 2288.656738,375.888214 
	C2302.284180,375.888214 2315.513184,375.888214 2329.216064,375.888214 
	C2329.216064,371.534546 2329.216064,368.031128 2329.216064,363.529297 
	C2315.661621,363.529297 2302.481201,363.529297 2288.889648,363.529297 
	C2288.889648,353.808044 2288.889648,345.089935 2288.889648,335.691284 
	C2302.827637,335.691284 2316.124756,335.691284 2331.087891,335.449707 
M1591.312988,879.980896 
	C1598.913086,879.980896 1606.513184,879.980896 1614.437012,879.980896 
	C1617.430298,888.296509 1620.215454,896.033752 1623.072998,903.972412 
	C1627.876709,903.972412 1632.389404,903.972412 1637.966431,903.972412 
	C1626.745239,872.798706 1615.784912,842.349487 1604.825195,811.901978 
	C1598.926636,811.901978 1593.727295,811.901978 1588.095093,811.901978 
	C1577.080688,842.592651 1566.159058,873.025269 1555.015137,904.077148 
	C1560.824707,904.077148 1565.079224,904.077148 1569.703125,904.077148 
	C1572.736206,895.975342 1575.713379,888.023132 1578.724121,879.980896 
	C1582.807983,879.980896 1586.118774,879.980896 1591.312988,879.980896 
M997.414734,892.413330 
	C1001.290527,887.355774 1004.529602,882.037109 1004.721252,874.803772 
	C1000.254578,874.803772 996.082764,874.803772 991.615051,874.803772 
	C991.034912,876.033875 990.453491,877.189026 989.937744,878.372864 
	C985.930298,887.570374 978.707642,892.050598 968.892761,892.638794 
	C958.343506,893.271118 949.537903,889.535217 944.533325,880.184998 
	C936.617249,865.394897 936.831482,850.001404 944.848145,835.315552 
	C949.731079,826.370178 958.309448,822.733948 968.428650,823.232422 
	C978.622681,823.734558 986.157959,828.309448 990.074707,838.087524 
	C990.549255,839.272217 991.267212,840.359314 991.671936,841.116577 
	C996.349915,841.116577 1000.469971,841.116577 1004.961487,841.116577 
	C1003.285767,828.953430 997.135620,820.682556 987.375000,815.123108 
	C966.213623,803.069702 939.310120,812.163879 929.454163,834.496704 
	C924.728699,845.204590 924.160583,856.398560 925.714966,867.777954 
	C928.002563,884.524963 935.996704,897.567566 952.359985,903.312378 
	C968.692749,909.046570 983.867371,906.151428 997.414734,892.413330 
M995.369080,1285.944092 
	C992.775818,1285.115723 990.194336,1283.617310 987.587341,1283.571411 
	C973.937561,1283.331299 960.281189,1283.429443 946.627441,1283.484009 
	C943.768250,1283.495483 940.910339,1283.817627 938.315674,1283.980103 
	C938.315674,1315.193115 938.315674,1345.640381 938.315674,1375.705566 
	C943.168823,1375.705566 947.326721,1375.705566 952.314575,1375.705566 
	C952.314575,1362.174316 952.314575,1349.336670 952.314575,1335.597656 
	C965.640930,1335.597656 978.129517,1335.597656 991.347961,1335.597656 
	C991.139648,1331.176880 990.977844,1327.743530 990.775940,1323.458008 
	C977.320496,1323.458008 964.856506,1323.458008 952.506409,1323.458008 
	C952.506409,1313.730347 952.506409,1304.931030 952.506409,1295.296143 
	C967.059021,1295.296143 980.911072,1295.296143 995.023376,1295.296143 
	C995.198486,1292.177246 995.326965,1289.889648 995.369080,1285.944092 
M2309.718262,837.102051 
	C2309.718262,832.880615 2309.718262,828.659241 2309.718262,823.824341 
	C2319.618164,823.824341 2328.481445,823.824341 2337.761230,823.824341 
	C2337.761230,819.402893 2337.761230,815.651611 2337.761230,812.075439 
	C2313.684570,812.075439 2290.256348,812.075439 2266.202393,812.075439 
	C2266.417969,816.191711 2266.599121,819.655029 2266.826904,824.010559 
	C2276.838379,824.010559 2285.990234,824.010559 2295.713623,824.010559 
	C2295.713623,851.145203 2295.713623,877.327454 2295.713623,903.644409 
	C2300.706299,903.644409 2305.073730,903.644409 2309.718262,903.644409 
	C2309.718262,881.618713 2309.718262,860.352356 2309.718262,837.102051 
M2982.392090,412.319214 
	C2982.573975,414.827942 2982.755859,417.336670 2982.944336,419.936890 
	C3001.846924,419.936890 3020.014893,419.936890 3038.495605,419.936890 
	C3038.634033,417.196747 3038.854492,414.911102 3038.822754,412.629028 
	C3038.805420,411.372681 3038.364258,410.122192 3037.956055,408.077087 
	C3024.223389,408.077087 3010.709717,408.077087 2996.302734,408.077087 
	C2996.302734,380.779663 2996.302734,354.339203 2996.302734,328.099091 
	C2991.155273,328.099091 2986.972412,328.099091 2982.391846,328.099091 
	C2982.391846,355.979950 2982.391846,383.219604 2982.392090,412.319214 
M3159.000000,374.479126 
	C3144.359131,374.480377 3129.718018,374.463226 3115.077148,374.495209 
	C3111.211182,374.503662 3106.963135,374.093872 3106.384277,380.950684 
	C3114.870361,382.673309 3123.088623,381.718323 3131.199219,381.870575 
	C3139.514893,382.026703 3147.835938,381.905212 3156.154541,381.905212 
	C3164.140625,381.905212 3172.126465,381.905212 3180.112549,381.905212 
	C3188.431152,381.905212 3196.750000,381.905212 3205.068604,381.905212 
	C3213.387451,381.905212 3221.706055,381.905212 3230.024902,381.905212 
	C3238.193115,381.905212 3246.361084,381.905212 3254.751953,381.905212 
	C3253.546631,389.652435 3242.987549,390.983704 3245.059814,401.033356 
	C3247.990723,399.185425 3250.396729,398.233948 3252.044922,396.543335 
	C3273.221680,374.818970 3273.436768,381.687347 3252.416992,360.149872 
	C3250.718018,358.409241 3248.381836,357.290741 3245.847168,355.541901 
	C3240.809814,365.262177 3253.070068,366.889313 3252.745117,374.480316 
	C3222.065674,374.480316 3191.532959,374.480316 3159.000000,374.479126 
M2552.867676,381.834808 
	C2554.750977,379.948486 2556.708984,378.130371 2558.503418,376.162659 
	C2563.210205,371.001221 2563.338867,369.413239 2558.683105,364.426727 
	C2554.138428,359.558990 2549.383789,354.872894 2544.497314,350.348724 
	C2543.261230,349.204254 2541.172607,348.980469 2539.003418,348.153625 
	C2535.753418,357.161255 2546.182617,358.979645 2547.221191,366.478851 
	C2543.557617,366.478851 2540.362061,366.478821 2537.166260,366.478851 
	C2496.516113,366.478882 2455.865723,366.472443 2415.215576,366.492157 
	C2412.225098,366.493591 2409.112549,366.220337 2406.290771,366.963318 
	C2404.639160,367.398132 2403.451172,369.594269 2400.566895,372.493988 
	C2412.126465,374.941040 2421.685059,373.628510 2431.107910,373.851959 
	C2441.098389,374.088898 2451.098633,373.905212 2461.094727,373.905212 
	C2470.757568,373.905212 2480.420166,373.905212 2490.083008,373.905212 
	C2500.078857,373.905212 2510.074951,373.905212 2520.070801,373.905212 
	C2529.565918,373.905212 2539.061035,373.905212 2548.699219,373.905212 
	C2547.560059,381.703003 2536.803955,382.939545 2538.910645,391.863770 
	C2545.686035,391.738129 2547.769531,385.876373 2552.867676,381.834808 
M2534.638672,861.905090 
	C2539.352539,862.261963 2544.241943,861.116333 2549.022461,862.693481 
	C2546.614014,869.465149 2537.855469,871.260010 2538.428467,879.799316 
	C2540.299561,879.612427 2541.949707,879.958374 2542.656494,879.296631 
	C2548.713379,873.627625 2554.724609,867.896790 2560.484619,861.929138 
	C2563.411377,858.896790 2562.011719,855.767578 2559.427734,853.146851 
	C2554.525879,848.174988 2549.654785,843.164673 2544.555664,838.400696 
	C2543.312256,837.239075 2541.235352,836.969910 2539.149414,836.133057 
	C2535.611816,845.167236 2546.093994,846.934875 2547.164551,854.011292 
	C2543.653809,854.177917 2540.487305,854.456726 2537.320557,854.459106 
	C2497.753174,854.488892 2458.186035,854.468872 2418.618652,854.498230 
	C2415.641846,854.500427 2412.535889,854.322754 2409.738770,855.111511 
	C2408.155518,855.557983 2407.079346,857.804077 2405.782959,859.230713 
	C2407.179443,860.500488 2407.652344,861.308411 2408.129883,861.311096 
	C2449.665283,861.549011 2491.201172,861.724792 2534.638672,861.905090 
M1816.948242,1326.479126 
	C1782.286377,1326.479004 1747.624634,1326.470459 1712.962769,1326.494263 
	C1709.973389,1326.496338 1706.921753,1326.380127 1704.012573,1326.924927 
	C1701.029175,1327.483643 1699.244507,1329.325562 1701.627319,1333.905273 
	C1710.571899,1333.905273 1720.158203,1333.905273 1729.744507,1333.905273 
	C1739.076538,1333.905273 1748.408569,1333.905273 1757.740601,1333.905273 
	C1767.405884,1333.905273 1777.071289,1333.905273 1786.736572,1333.905273 
	C1796.068604,1333.905273 1805.405029,1333.726929 1814.731445,1333.955322 
	C1824.087524,1334.184326 1833.553223,1332.916992 1843.007202,1334.806152 
	C1840.508667,1341.470947 1831.671265,1343.231567 1832.509399,1351.492920 
	C1834.090698,1351.582642 1835.441284,1352.071655 1835.923828,1351.624268 
	C1842.251343,1345.757202 1848.624512,1339.920532 1854.619995,1333.721802 
	C1857.555298,1330.687012 1855.804810,1327.527954 1853.245728,1324.950928 
	C1848.314819,1319.984863 1843.441650,1314.952637 1838.311157,1310.199585 
	C1837.120728,1309.096680 1834.993286,1309.005371 1832.795410,1308.283936 
	C1830.017212,1317.194824 1840.351929,1319.059692 1841.064331,1326.480469 
	C1833.407104,1326.480469 1826.163574,1326.480469 1816.948242,1326.479126 
M1834.165161,844.446594 
	C1836.377441,847.488770 1840.538696,849.189514 1841.089722,854.478577 
	C1837.289795,854.478577 1834.014160,854.478577 1830.738525,854.478577 
	C1792.088867,854.478699 1753.439087,854.468994 1714.789429,854.498169 
	C1711.806641,854.500427 1708.685059,854.299316 1705.895996,855.112183 
	C1704.350464,855.562500 1703.360840,857.920532 1700.471191,861.410950 
	C1714.497559,862.296509 1726.030884,861.798401 1737.528442,861.885559 
	C1749.189331,861.973999 1760.851440,861.905090 1772.512939,861.905090 
	C1784.507690,861.905090 1796.504517,861.765503 1808.496582,861.945435 
	C1819.897095,862.116455 1831.359009,861.139404 1842.952637,862.585754 
	C1840.722046,869.466919 1831.881592,871.240417 1832.493164,880.985901 
	C1835.679565,879.205627 1838.031494,878.395691 1839.713013,876.854309 
	C1844.129883,872.805603 1848.357178,868.534912 1852.469238,864.172791 
	C1857.265747,859.084595 1857.342651,857.420898 1852.704956,852.449707 
	C1848.162476,847.580261 1843.405640,842.896484 1838.521973,838.369629 
	C1837.280151,837.218628 1835.199463,836.972595 1832.037720,835.738159 
	C1832.583984,839.153442 1832.914917,841.222046 1834.165161,844.446594 
M3119.013428,1340.680786 
	C3122.581787,1341.088989 3126.149658,1341.844238 3129.718750,1341.852051 
	C3168.640869,1341.937622 3207.562988,1341.893799 3246.485107,1341.932983 
	C3249.256592,1341.935791 3252.027588,1342.313232 3254.956299,1342.528076 
	C3252.726074,1349.461060 3243.910400,1351.235107 3244.424316,1360.081299 
	C3246.842773,1359.347046 3249.004395,1359.317139 3250.182129,1358.225586 
	C3255.545166,1353.254272 3260.649170,1348.001587 3265.811279,1342.815063 
	C3269.071289,1339.539551 3268.532227,1336.275757 3265.500000,1333.222534 
	C3260.343994,1328.031250 3255.193848,1322.828735 3249.862549,1317.821655 
	C3248.843018,1316.864258 3246.997314,1316.786743 3245.225098,1316.201660 
	C3241.459473,1325.177124 3252.112793,1326.873657 3253.091797,1333.981567 
	C3249.705322,1334.155273 3246.550781,1334.455200 3243.395996,1334.458008 
	C3206.137207,1334.490723 3168.878418,1334.474365 3131.619629,1334.487183 
	C3128.628418,1334.488281 3125.493652,1334.089478 3122.698242,1334.862671 
	C3120.954346,1335.345093 3119.722412,1337.679565 3119.013428,1340.680786 
M2479.000000,1094.479126 
	C2460.337402,1094.479126 2441.674561,1094.453613 2423.011963,1094.507935 
	C2420.371582,1094.515625 2417.531982,1094.397583 2415.166260,1095.318481 
	C2413.699707,1095.889160 2412.953857,1098.311035 2410.538086,1101.905273 
	C2424.199219,1101.905273 2435.445068,1101.905273 2446.690918,1101.905273 
	C2458.021729,1101.905273 2469.352783,1101.905273 2480.683594,1101.905273 
	C2492.347656,1101.905273 2504.012207,1101.851196 2515.676025,1101.920898 
	C2526.718994,1101.986938 2537.791260,1101.606445 2549.288330,1102.209229 
	C2546.473633,1109.415894 2537.805176,1111.283813 2538.447021,1119.881226 
	C2540.396240,1119.627808 2542.039795,1119.921997 2542.764893,1119.239990 
	C2548.822510,1113.541992 2554.861816,1107.807739 2560.588379,1101.781982 
	C2563.505859,1098.712036 2561.853027,1095.586548 2559.290039,1092.998901 
	C2554.365479,1088.026978 2549.490479,1082.997559 2544.364502,1078.239990 
	C2543.163330,1077.124878 2541.043945,1076.998779 2538.893799,1076.262573 
	C2535.848877,1085.229248 2546.417969,1086.985352 2547.004150,1094.480347 
	C2524.767822,1094.480347 2502.883789,1094.480347 2479.000000,1094.479126 
M1853.849487,1093.564453 
	C1847.322876,1087.754517 1842.372192,1080.069702 1833.799683,1075.642090 
	C1828.804077,1085.261475 1841.075317,1086.888306 1840.743164,1094.478882 
	C1837.349731,1094.478882 1834.101562,1094.479004 1830.853516,1094.479004 
	C1794.238892,1094.479004 1757.624146,1094.471069 1721.009521,1094.493286 
	C1718.023193,1094.495117 1714.976318,1094.372437 1712.067261,1094.905640 
	C1709.112793,1095.447388 1707.255615,1097.237549 1709.595459,1101.905273 
	C1720.173218,1101.905273 1731.402466,1101.905273 1742.631836,1101.905273 
	C1753.616211,1101.905273 1764.600586,1101.905273 1775.584961,1101.905273 
	C1786.902222,1101.905273 1798.221680,1101.766479 1809.536133,1101.944824 
	C1820.591431,1102.119141 1831.709839,1101.151123 1842.958496,1102.590332 
	C1840.712158,1109.464355 1831.893677,1111.241089 1832.411133,1119.732056 
	C1834.223877,1119.595215 1835.893311,1119.985962 1836.578979,1119.336914 
	C1842.849243,1113.404053 1849.122559,1107.449585 1854.934448,1101.081055 
	C1855.966064,1099.950439 1854.870605,1096.878906 1853.849487,1093.564453 
M2429.242676,1333.905151 
	C2468.987305,1333.905151 2508.731934,1333.905151 2548.815430,1333.905151 
	C2547.508057,1341.600342 2537.134521,1343.026367 2538.797607,1352.175781 
	C2540.894775,1351.546753 2542.766113,1351.534790 2543.763916,1350.595215 
	C2549.327393,1345.356201 2554.744873,1339.957031 2560.078613,1334.482056 
	C2563.380371,1331.092773 2562.149902,1327.852539 2559.217529,1324.913574 
	C2554.286377,1319.971924 2549.433594,1314.944458 2544.316162,1310.203125 
	C2543.125488,1309.099976 2541.003906,1309.001709 2538.876953,1308.297607 
	C2535.877930,1317.245605 2546.415039,1318.985229 2547.001465,1326.478882 
	C2543.437256,1326.478882 2540.225830,1326.479004 2537.014160,1326.479004 
	C2500.444336,1326.479004 2463.874268,1326.473389 2427.304443,1326.489258 
	C2424.316650,1326.490601 2421.237793,1326.234497 2418.377930,1326.879883 
	C2416.833008,1327.228271 2415.662109,1329.233154 2414.322510,1330.490601 
	C2415.666748,1331.610352 2416.883545,1333.427979 2418.382080,1333.700684 
	C2421.281250,1334.228760 2424.338623,1333.886475 2429.242676,1333.905151 
M2886.944336,373.899200 
	C2894.559570,373.190735 2902.530518,375.501770 2910.304932,372.233459 
	C2908.019043,364.691223 2902.605469,366.572845 2898.407715,366.562286 
	C2852.172852,366.446167 2805.937744,366.488464 2759.702637,366.493469 
	C2757.707764,366.493683 2755.608154,366.169586 2753.747070,366.683289 
	C2751.828613,367.212830 2750.142090,368.583191 2748.263672,369.636444 
	C2751.076172,375.416962 2755.572266,373.822357 2759.230957,373.831573 
	C2801.141602,373.937256 2843.052490,373.898926 2886.944336,373.899200 
M2091.000000,366.489685 
	C2077.696045,366.490845 2064.391846,366.452606 2051.088379,366.519867 
	C2047.618408,366.537415 2043.549316,365.815247 2042.483154,372.453583 
	C2046.434448,372.956116 2050.140381,373.830231 2053.847900,373.837799 
	C2099.746094,373.931549 2145.644775,373.901581 2191.543213,373.891754 
	C2193.868164,373.891266 2196.275146,374.125000 2198.485596,373.592133 
	C2199.722168,373.294037 2201.513672,371.597931 2201.464844,370.610687 
	C2201.404053,369.387817 2199.867676,367.497162 2198.664062,367.220367 
	C2195.800049,366.561737 2192.757080,366.518250 2189.785889,366.514587 
	C2157.523926,366.474640 2125.261963,366.490356 2091.000000,366.489685 
M2199.168945,858.962036 
	C2198.146240,853.052551 2193.415283,854.554016 2189.784424,854.547180 
	C2143.861084,854.461060 2097.937988,854.490173 2052.014648,854.493469 
	C2050.684082,854.493591 2049.248779,854.220215 2048.046875,854.623840 
	C2046.097656,855.278381 2044.301514,856.388794 2042.136353,857.456970 
	C2044.856445,863.154114 2049.274414,861.840332 2052.933838,861.846741 
	C2098.191406,861.926331 2143.449219,861.930969 2188.706543,861.830322 
	C2191.902344,861.823242 2195.096191,860.835510 2199.168945,858.962036 
M1373.004028,1326.489624 
	C1363.366821,1326.491699 1353.729248,1326.447998 1344.092651,1326.521362 
	C1340.847656,1326.546143 1337.201172,1326.236084 1336.660645,1332.470459 
	C1340.434814,1332.953247 1344.130249,1333.829712 1347.827637,1333.837402 
	C1392.690186,1333.932129 1437.553223,1333.900146 1482.416016,1333.895508 
	C1484.409058,1333.895264 1486.509644,1334.226440 1488.365356,1333.707397 
	C1490.251709,1333.179565 1491.896973,1331.789551 1493.795410,1330.691772 
	C1490.777588,1325.151978 1486.369629,1326.556885 1482.672729,1326.546997 
	C1446.782715,1326.452026 1410.892334,1326.490356 1373.004028,1326.489624 
M1377.001221,861.899048 
	C1411.255981,861.899048 1445.510742,861.928406 1479.765259,861.852722 
	C1483.121094,861.845276 1486.475708,861.191895 1489.830811,860.838318 
	C1489.997925,860.058899 1490.165161,859.279419 1490.332275,858.500000 
	C1488.734375,857.233459 1487.305908,855.341614 1485.497681,854.852051 
	C1483.003906,854.176758 1480.223511,854.499512 1477.565918,854.498718 
	C1434.664429,854.485962 1391.762817,854.488525 1348.861328,854.492981 
	C1346.534058,854.493225 1344.125610,854.177429 1341.903809,854.674072 
	C1339.960327,855.108582 1338.226685,856.481018 1336.400269,857.439087 
	C1336.513794,858.229065 1336.627197,859.018982 1336.740723,859.808960 
	C1349.129883,864.395264 1362.294067,860.714539 1377.001221,861.899048 
M2141.000000,1101.899048 
	C2155.620117,1101.898315 2170.240479,1101.936401 2184.860107,1101.868530 
	C2188.305176,1101.852539 2192.387451,1102.648682 2193.575439,1096.026733 
	C2189.594727,1095.487671 2185.910889,1094.563354 2182.224854,1094.554688 
	C2139.361572,1094.453125 2096.498047,1094.488403 2053.634521,1094.493652 
	C2051.641846,1094.493896 2049.541016,1094.167603 2047.686401,1094.689575 
	C2045.778687,1095.226807 2044.111206,1096.617798 2042.325562,1097.642578 
	C2045.111328,1103.461914 2049.608154,1101.814819 2053.273193,1101.830566 
	C2081.848389,1101.953857 2110.424316,1101.898926 2141.000000,1101.899048 
M2839.000000,1326.489624 
	C2818.066650,1326.489380 2797.133301,1326.487793 2776.199951,1326.490112 
	C2769.222168,1326.490845 2762.243896,1326.447388 2755.267090,1326.532959 
	C2752.243408,1326.570068 2749.087158,1326.684692 2748.713379,1332.392456 
	C2752.313721,1332.888184 2755.982666,1333.824463 2759.653809,1333.833252 
	C2802.517090,1333.936035 2845.380615,1333.900024 2888.244141,1333.896240 
	C2890.237061,1333.895996 2892.326172,1334.217773 2894.196533,1333.726685 
	C2896.110352,1333.224121 2897.809814,1331.905029 2899.941406,1330.761963 
	C2898.716797,1329.135010 2898.169434,1327.744141 2897.585938,1327.728882 
	C2878.726074,1327.234253 2859.862793,1326.872437 2839.000000,1326.489624 
M1407.000000,1094.489624 
	C1400.687012,1094.489502 1394.374023,1094.488892 1388.061035,1094.489380 
	C1373.773804,1094.490234 1359.486328,1094.446167 1345.199463,1094.525391 
	C1341.744751,1094.544434 1337.618896,1093.720093 1336.438599,1100.385742 
	C1340.348999,1100.910522 1344.030273,1101.825806 1347.713745,1101.834595 
	C1389.910767,1101.935791 1432.108032,1101.900024 1474.305298,1101.895874 
	C1476.298218,1101.895752 1478.390991,1102.220825 1480.256104,1101.719727 
	C1482.160767,1101.208008 1483.841553,1099.863525 1485.930298,1098.712646 
	C1482.827637,1093.354980 1478.515015,1094.544922 1474.787720,1094.530884 
	C1452.858643,1094.447754 1430.929321,1094.490479 1407.000000,1094.489624 
M2154.996094,1333.899048 
	C2164.631836,1333.897705 2174.267822,1333.952515 2183.902832,1333.863159 
	C2187.106201,1333.833496 2190.880615,1334.342041 2191.233398,1327.957275 
	C2187.573242,1327.471313 2183.877686,1326.562256 2180.179688,1326.553467 
	C2137.982422,1326.452881 2095.785156,1326.488281 2053.587646,1326.493774 
	C2051.594971,1326.494019 2049.491211,1326.165649 2047.640625,1326.694824 
	C2045.740112,1327.238281 2044.086914,1328.647217 2042.111572,1329.802368 
	C2045.249512,1335.171997 2049.601318,1333.841309 2053.319092,1333.850586 
	C2086.545410,1333.933350 2119.771729,1333.898804 2154.996094,1333.899048 
M1095.009033,1333.910156 
	C1108.840454,1333.910156 1122.671875,1333.910156 1136.683838,1333.910156 
	C1135.624756,1341.696533 1124.925781,1342.963135 1126.788940,1351.651733 
	C1128.281250,1351.651733 1129.634277,1352.068359 1130.146118,1351.588257 
	C1136.442749,1345.682373 1142.761108,1339.784912 1148.753052,1333.575806 
	C1151.266113,1330.971558 1150.090942,1327.922974 1147.805908,1325.546021 
	C1143.883545,1321.465576 1139.922119,1317.415405 1135.818481,1313.519409 
	C1133.571899,1311.386719 1131.000732,1309.595947 1128.441772,1307.543335 
	C1124.506470,1311.977417 1126.519165,1314.572876 1128.814331,1317.135376 
	C1131.100342,1319.687744 1133.382568,1322.243408 1137.161621,1326.469604 
	C1125.649292,1326.469604 1116.723755,1326.468750 1107.798218,1326.469849 
	C1095.810425,1326.471436 1083.822632,1326.440552 1071.835083,1326.497681 
	C1068.163330,1326.515137 1064.454590,1326.727295 1064.311768,1333.138306 
	C1074.034058,1334.684448 1083.574585,1333.560669 1095.009033,1333.910156 
M1137.631470,1083.265991 
	C1134.368408,1080.860352 1132.671875,1075.934937 1127.012451,1076.676880 
	C1123.474609,1085.171997 1134.073730,1086.874390 1135.083862,1093.966675 
	C1131.712646,1094.142090 1128.566772,1094.436157 1125.419800,1094.447266 
	C1110.808716,1094.498535 1096.197266,1094.435547 1081.586182,1094.498291 
	C1078.131958,1094.513062 1074.110840,1093.671509 1072.734131,1098.305298 
	C1074.896729,1103.161255 1078.998047,1101.832520 1082.406860,1101.858276 
	C1098.013550,1101.976318 1113.621460,1101.896606 1129.229004,1101.927368 
	C1131.713013,1101.932251 1134.196533,1102.138428 1136.812988,1102.257568 
	C1135.293823,1109.640259 1124.878174,1111.014282 1126.870361,1119.555786 
	C1128.093140,1119.678711 1129.029053,1120.056641 1129.348511,1119.763062 
	C1135.901855,1113.744507 1142.547241,1107.809937 1148.802490,1101.490479 
	C1151.325317,1098.941650 1150.028564,1095.867676 1147.761841,1093.491821 
	C1144.782471,1090.369263 1141.694946,1087.349609 1137.631470,1083.265991 
M1114.883911,854.469971 
	C1103.227661,854.491577 1091.570557,854.450073 1079.915527,854.580933 
	C1077.145752,854.612000 1074.065430,855.542480 1074.638306,858.946472 
	C1074.848145,860.193787 1078.075928,861.729187 1079.956299,861.769775 
	C1091.940674,862.028687 1103.933350,861.907471 1115.923218,861.910095 
	C1122.782104,861.911560 1129.640991,861.910339 1137.022095,861.910339 
	C1135.273926,869.467346 1125.136719,871.050232 1126.988647,881.044373 
	C1129.962769,879.190979 1132.375977,878.260315 1134.017456,876.577148 
	C1155.235840,854.819519 1155.440430,861.678528 1134.427612,840.148987 
	C1132.726929,838.406494 1130.388184,837.286682 1127.449341,835.258789 
	C1123.391235,845.016479 1134.634766,847.068359 1134.948608,854.471191 
	C1128.675049,854.471191 1122.751831,854.471191 1114.883911,854.469971 
M1936.172485,475.116333 
	C1932.857910,478.666748 1929.543335,482.217194 1926.048462,485.960785 
	C1931.461914,491.698944 1933.616699,486.562561 1936.224121,484.405945 
	C1939.136841,481.996674 1941.776245,479.256714 1945.360107,475.883759 
	C1947.224243,486.767395 1944.502930,496.429138 1947.487915,505.971161 
	C1955.806519,503.645142 1953.046021,497.728760 1953.443726,493.361877 
	C1953.875000,488.623871 1953.629517,483.824280 1953.679443,479.014496 
	C1961.268311,479.832214 1962.783447,490.845917 1971.679443,486.661102 
	C1971.077759,480.290894 1965.831665,477.716461 1962.332153,474.084869 
	C1948.603638,459.837677 1950.267090,461.088043 1936.172485,475.116333 
M1950.494873,724.413208 
	C1945.739258,723.921082 1946.142334,727.398682 1946.125977,730.304443 
	C1946.068237,740.554871 1946.072388,750.806763 1946.212036,761.055908 
	C1946.231812,762.506287 1947.131714,763.944580 1948.154419,766.943481 
	C1950.485962,764.541077 1953.071777,763.106323 1953.057373,761.698364 
	C1952.932251,749.584534 1952.337646,737.475586 1950.494873,724.413208 
z"/>
<path fill="#B0F4C6" opacity="1.000000" stroke="none" 
	d="
M2600.068359,1029.999023 
	C2633.138916,1004.734741 2673.447510,1003.184448 2707.194580,1027.212280 
	C2731.644043,1044.620361 2744.679199,1069.829468 2743.615723,1100.047607 
	C2742.073486,1143.861328 2713.670898,1178.804077 2668.741943,1185.464722 
	C2617.103516,1193.119873 2576.355225,1158.759399 2568.751465,1113.415771 
	C2563.297607,1080.890991 2573.660645,1052.297241 2600.068359,1029.999023 
z"/>
<path fill="#B0F4C6" opacity="1.000000" stroke="none" 
	d="
M3405.025879,1415.286743 
	C3371.845215,1431.516113 3339.856201,1431.164185 3310.122559,1409.744385 
	C3287.104980,1393.162720 3274.431885,1370.239258 3273.762695,1341.024658 
	C3273.224609,1317.531372 3280.562744,1297.149048 3295.782959,1279.725586 
	C3309.119629,1264.458984 3326.347412,1255.730225 3346.295166,1251.866943 
	C3368.693359,1247.529297 3389.191406,1252.268433 3408.151611,1264.097168 
	C3429.820801,1277.616089 3443.164795,1297.067383 3448.016602,1322.316406 
	C3453.414551,1350.407227 3445.565918,1375.050171 3427.778809,1396.489990 
	C3421.757812,1403.747559 3413.105469,1408.821899 3405.025879,1415.286743 
z"/>
<path fill="#B0F4C6" opacity="1.000000" stroke="none" 
	d="
M2738.815430,1358.520020 
	C2726.732422,1392.394775 2702.890137,1412.378418 2668.778320,1417.429565 
	C2617.261719,1425.057983 2576.166016,1390.987549 2568.752930,1345.498169 
	C2560.298828,1293.623047 2594.348633,1251.252319 2641.696533,1243.803223 
	C2676.207764,1238.373657 2704.045166,1250.541992 2725.238770,1276.911743 
	C2740.274170,1295.619019 2746.873779,1317.809448 2742.369873,1342.252686 
	C2741.411621,1347.452881 2740.209717,1352.608154 2738.815430,1358.520020 
z"/>
<path fill="#B0F4C6" opacity="1.000000" stroke="none" 
	d="
M1894.639404,1399.501221 
	C1878.870483,1385.808838 1867.727051,1369.971069 1863.706909,1349.904175 
	C1858.875244,1325.786255 1862.128052,1302.967041 1875.940308,1282.171387 
	C1893.744385,1255.365845 1919.493286,1242.039429 1950.968750,1242.422241 
	C1993.540283,1242.940063 2028.477905,1273.542603 2036.037964,1314.213623 
	C2041.264893,1342.332764 2033.887939,1367.208984 2015.858154,1388.434937 
	C1999.940430,1407.174438 1978.910522,1416.953125 1953.880005,1418.222412 
	C1931.877197,1419.338013 1912.642578,1412.813843 1894.639404,1399.501221 
z"/>
<path fill="#B0F4C6" opacity="1.000000" stroke="none" 
	d="
M1204.107422,1251.912109 
	C1236.454956,1236.365234 1267.086670,1239.548584 1295.249023,1259.277344 
	C1313.999756,1272.413208 1325.839355,1291.151611 1330.080444,1314.345825 
	C1335.225342,1342.483521 1327.866455,1367.369385 1309.766602,1388.522217 
	C1293.299194,1407.766968 1271.585327,1417.005249 1245.771606,1418.342651 
	C1204.544678,1420.478516 1164.910645,1388.971436 1157.313843,1348.292969 
	C1152.740723,1323.806641 1156.798950,1300.689087 1171.351562,1279.927124 
	C1179.714233,1267.996338 1190.189087,1258.515259 1204.107422,1251.912109 
z"/>
<path fill="#B0F4C6" opacity="1.000000" stroke="none" 
	d="
M1912.116699,1178.084839 
	C1885.747559,1164.902710 1869.108887,1144.573120 1863.447510,1116.431885 
	C1858.768066,1093.170776 1862.306763,1070.868408 1875.665161,1050.594116 
	C1893.391724,1023.690552 1919.003906,1010.242188 1950.451294,1010.426941 
	C1993.098999,1010.677429 2028.101562,1041.029419 2035.959351,1081.684814 
	C2041.454834,1110.118652 2033.994141,1135.361328 2015.553101,1156.764282 
	C1999.273926,1175.658081 1977.916260,1185.675659 1952.435425,1186.180420 
	C1938.571777,1186.455078 1925.255127,1184.866943 1912.116699,1178.084839 
z"/>
<path fill="#B0F4C6" opacity="1.000000" stroke="none" 
	d="
M1261.309082,1012.217529 
	C1279.606445,1016.694275 1294.803589,1024.731934 1307.356201,1038.028931 
	C1319.142090,1050.513916 1326.585938,1064.911499 1329.921509,1081.607300 
	C1335.593140,1109.994995 1328.042114,1135.279297 1309.624634,1156.681519 
	C1293.115234,1175.866211 1271.384277,1185.049438 1245.580811,1186.345825 
	C1204.646484,1188.402832 1164.899902,1157.130981 1157.282349,1116.147461 
	C1152.947021,1092.822510 1156.405884,1070.547485 1169.814819,1050.342041 
	C1187.849854,1023.165710 1213.854858,1011.043640 1245.719727,1010.221436 
	C1250.619385,1010.095093 1255.556641,1011.426331 1261.309082,1012.217529 
z"/>
<path fill="#B0F4C6" opacity="1.000000" stroke="none" 
	d="
M434.162567,1112.043945 
	C428.930939,1146.789795 404.163818,1175.192505 369.487793,1183.687988 
	C316.658508,1196.631226 268.920105,1163.130859 260.756348,1113.480713 
	C252.225510,1061.598145 286.376709,1019.253052 333.677734,1011.806641 
	C368.170197,1006.376587 396.031342,1018.506592 417.207275,1044.881714 
	C432.462952,1063.883301 439.058075,1086.385620 434.162567,1112.043945 
z"/>
<path fill="#B0F4C6" opacity="1.000000" stroke="none" 
	d="
M2669.929443,771.867920 
	C2702.326904,777.835693 2724.930908,795.842590 2736.944336,825.069397 
	C2750.636963,858.380798 2744.512451,889.991699 2721.216309,917.119446 
	C2704.965576,936.043091 2683.384521,944.982117 2657.984375,946.328979 
	C2616.413574,948.533386 2576.725830,917.115906 2569.139404,875.583496 
	C2564.955566,852.678772 2568.450195,830.659668 2581.602783,810.696350 
	C2599.550049,783.456360 2625.439209,771.210266 2657.300537,770.204041 
	C2661.203857,770.080811 2665.147949,771.237244 2669.929443,771.867920 
z"/>
<path fill="#B0F4C6" opacity="1.000000" stroke="none" 
	d="
M1985.556030,778.137024 
	C2018.061157,794.375732 2036.535522,820.196716 2037.521973,855.630127 
	C2038.756104,899.963196 2010.124390,938.158997 1963.199097,945.407166 
	C1911.370239,953.412720 1869.715088,918.723755 1862.689819,872.911743 
	C1855.266479,824.504211 1883.136597,784.698486 1929.406738,772.661133 
	C1948.360718,767.730164 1966.919678,770.169128 1985.556030,778.137024 
z"/>
<path fill="#B0F4C6" opacity="1.000000" stroke="none" 
	d="
M1173.411255,805.474243 
	C1187.829712,785.990234 1206.798706,775.595154 1229.774414,771.835815 
	C1264.275269,766.190735 1292.138428,778.581299 1313.301636,804.987671 
	C1328.309692,823.713928 1334.342773,845.827271 1330.514893,870.396118 
	C1326.194580,898.125366 1312.681641,919.391357 1288.854004,933.976257 
	C1257.551270,953.136658 1213.016479,950.596069 1184.318848,923.547485 
	C1171.602417,911.561707 1162.181274,897.586609 1158.297729,880.684570 
	C1152.130981,853.845215 1155.980591,828.535278 1173.411255,805.474243 
z"/>
<path fill="#B0F4C6" opacity="1.000000" stroke="none" 
	d="
M1925.161865,455.336304 
	C1892.005249,443.930023 1870.682251,422.204895 1863.496094,388.498718 
	C1858.546875,365.284546 1862.319702,342.962891 1875.621216,322.677032 
	C1893.292114,295.728058 1918.904419,282.287781 1950.338013,282.428040 
	C1992.943726,282.618103 2027.980713,312.845917 2035.940674,353.545624 
	C2041.497559,381.957764 2034.056519,407.223572 2015.658325,428.646118 
	C1999.421387,447.552216 1978.087891,458.067383 1952.609253,457.968750 
	C1943.713257,457.934326 1934.822998,456.439880 1925.161865,455.336304 
z"/>
<path fill="#B0F4C6" opacity="1.000000" stroke="none" 
	d="
M2603.538574,299.439087 
	C2619.758545,287.912811 2637.335205,281.858063 2656.364990,282.278717 
	C2699.010254,283.221344 2734.044678,312.933929 2741.949219,353.616241 
	C2747.472656,382.044189 2740.031982,407.312531 2721.592041,428.719574 
	C2705.061035,447.910339 2683.306885,457.062958 2657.497803,458.344543 
	C2616.688477,460.370972 2576.851562,429.230042 2569.254395,388.014099 
	C2564.680420,363.197174 2568.575928,339.515533 2584.305908,319.025848 
	C2589.693848,312.007782 2596.718018,306.245850 2603.538574,299.439087 
z"/>
<path fill="#B0F4C6" opacity="1.000000" stroke="none" 
	d="
M3396.087402,297.708252 
	C3424.526367,310.932892 3441.958008,332.065857 3447.995850,362.321625 
	C3457.073486,407.809357 3427.647949,457.230469 3375.732178,465.390442 
	C3323.661865,473.574615 3281.458984,438.720886 3274.619873,392.454071 
	C3267.475830,344.120850 3295.372314,304.819031 3340.897461,292.827911 
	C3359.455078,287.939850 3377.729492,289.726715 3396.087402,297.708252 
z"/>
<path fill="#BABABA" opacity="1.000000" stroke="none" 
	d="
M857.088501,1326.493408 
	C861.295105,1326.669800 864.882690,1326.386841 865.680664,1331.741333 
	C864.167053,1332.409424 862.528259,1333.751099 860.878357,1333.765015 
	C845.217285,1333.897217 829.465149,1334.856445 813.912109,1333.537842 
	C788.293762,1331.365356 768.073669,1307.610840 768.097534,1283.635498 
	C768.142578,1238.312378 768.099243,1192.989380 768.096436,1147.666260 
	C768.095642,1135.123413 764.023071,1124.440063 755.040222,1115.312256 
	C745.480042,1105.597778 734.085327,1101.858154 720.828491,1101.867798 
	C631.515320,1101.933350 542.202148,1101.923218 452.889069,1101.824707 
	C448.824280,1101.820190 444.097412,1103.556519 440.181183,1098.202637 
	C441.866516,1096.977783 443.346008,1095.149658 445.128876,1094.778442 
	C448.011383,1094.178223 451.093353,1094.495361 454.091095,1094.494995 
	C543.071045,1094.486572 632.051025,1094.453003 721.030823,1094.538330 
	C729.845337,1094.546875 738.329163,1093.742432 746.004822,1089.005005 
	C760.490906,1080.064087 767.973816,1066.959473 768.036133,1050.039551 
	C768.209106,1003.050842 768.457520,956.056946 767.930237,909.073547 
	C767.711670,889.593201 777.900391,867.196594 801.547485,858.555969 
	C807.692383,856.310669 814.430176,855.159973 820.981323,854.682739 
	C829.932312,854.030701 838.966187,854.436890 847.962524,854.549072 
	C849.889404,854.573059 851.946655,854.983276 853.673645,855.792419 
	C854.587097,856.220276 855.483643,857.963013 855.351440,858.977112 
	C855.224243,859.953491 853.889648,861.265198 852.858337,861.523743 
	C850.962036,861.999207 848.899292,861.878906 846.905518,861.885803 
	C838.240967,861.915955 829.566650,862.165894 820.913330,861.854065 
	C797.386353,861.006104 774.827393,880.635010 775.299744,907.017700 
	C776.099060,951.659912 775.408569,996.327271 775.560913,1040.983398 
	C775.623474,1059.307373 771.834839,1075.991943 757.797302,1089.016602 
	C757.117065,1089.647705 756.805115,1090.696777 756.395447,1091.585083 
	C756.282898,1091.829346 756.437927,1092.197144 756.609253,1093.848877 
	C759.767578,1094.049805 763.217896,1094.452393 766.669067,1094.459595 
	C792.663086,1094.513306 818.657349,1094.460327 844.651306,1094.529175 
	C847.605835,1094.536987 850.648499,1094.773071 853.465393,1095.562866 
	C854.491455,1095.850586 855.390137,1098.020020 855.531494,1099.413696 
	C855.598694,1100.076660 853.828369,1101.446655 852.761414,1101.600342 
	C850.143860,1101.976929 847.451538,1101.889526 844.789246,1101.890747 
	C814.474609,1101.904053 784.159912,1101.899170 752.370789,1101.899170 
	C754.295410,1104.460083 755.260498,1106.393433 756.779724,1107.664429 
	C770.995850,1119.558105 775.524231,1135.369385 775.516907,1153.108276 
	C775.498962,1196.098511 775.649475,1239.089478 775.460205,1282.078857 
	C775.369873,1302.605103 785.672424,1315.909790 803.632629,1323.901855 
	C807.724976,1325.723022 812.644470,1326.229858 817.208252,1326.343750 
	C830.197144,1326.668335 843.198914,1326.478149 857.088501,1326.493408 
z"/>
<path fill="#3A3A3A" opacity="1.000000" stroke="none" 
	d="
M1946.992432,634.790527 
	C1947.815308,636.377380 1948.282593,637.253235 1949.550415,639.629456 
	C1960.579712,615.604675 1969.134766,591.694641 1979.558960,568.038086 
	C1985.000000,568.038086 1990.451050,568.038086 1996.294678,568.038086 
	C1996.294678,598.667236 1996.294678,628.864990 1996.294678,659.732910 
	C1992.454834,659.732910 1988.615356,659.732910 1983.593506,659.732910 
	C1983.593506,639.959229 1983.593506,619.840576 1983.593506,599.721985 
	C1982.787964,599.504089 1981.982422,599.286133 1981.176880,599.068176 
	C1976.834473,604.598694 1975.274414,611.693237 1972.418457,618.013367 
	C1969.271606,624.977478 1966.682739,632.192322 1963.792603,639.274170 
	C1961.034302,646.033203 1958.201538,652.761719 1955.254395,659.857666 
	C1951.586914,659.857666 1948.039185,659.857666 1943.799438,659.857666 
	C1935.347168,639.329712 1926.810425,618.596802 1918.273804,597.863892 
	C1917.522461,597.984070 1916.771240,598.104309 1916.020020,598.224548 
	C1915.461426,618.504761 1916.033813,638.820984 1915.683960,659.749268 
	C1911.284546,659.749268 1907.142334,659.749268 1902.551758,659.749268 
	C1902.551758,629.371643 1902.551758,599.174805 1902.551758,568.222046 
	C1907.927368,568.222046 1913.379761,568.222046 1919.722046,568.222046 
	C1928.553345,589.831177 1937.595215,611.955383 1946.992432,634.790527 
z"/>
<path fill="#3D3D3D" opacity="1.000000" stroke="none" 
	d="
M2988.883789,1309.240112 
	C2980.451904,1322.277954 2980.148193,1335.687622 2984.182373,1349.227783 
	C2988.707275,1364.414795 3002.669678,1371.788940 3018.003174,1367.859863 
	C3028.221436,1365.241333 3033.776367,1357.685547 3034.250244,1344.723145 
	C3027.117432,1344.723145 3019.981689,1344.723145 3012.479492,1344.723145 
	C3012.479492,1340.388184 3012.479492,1337.144897 3012.479492,1333.283203 
	C3024.289551,1333.283203 3035.825684,1333.283203 3047.413818,1333.283203 
	C3052.472900,1351.744873 3044.890625,1370.027710 3028.814453,1377.874512 
	C3011.256836,1386.444458 2988.727051,1381.437256 2977.350586,1366.436646 
	C2964.402344,1349.363647 2964.251709,1318.537476 2977.358398,1301.627075 
	C2987.779297,1288.182129 3001.897461,1283.757324 3018.229492,1286.968506 
	C3033.972900,1290.063965 3043.863281,1299.719604 3048.355225,1316.240967 
	C3043.291260,1316.240967 3039.131348,1316.240967 3034.677246,1316.240967 
	C3019.977295,1295.780640 3005.224121,1293.188232 2988.883789,1309.240112 
z"/>
<path fill="#3D3D3D" opacity="1.000000" stroke="none" 
	d="
M2319.712891,1128.210205 
	C2325.853516,1122.914673 2329.173828,1117.181763 2328.230469,1108.729004 
	C2321.083252,1108.729004 2314.209229,1108.729004 2306.727051,1108.729004 
	C2306.727051,1104.500854 2306.727051,1101.085205 2306.727051,1097.266968 
	C2308.962646,1097.047974 2310.903320,1096.704712 2312.846191,1096.693237 
	C2322.443359,1096.636353 2332.041016,1096.667358 2341.462402,1096.667358 
	C2346.343994,1119.111816 2336.695312,1137.941406 2317.827148,1143.872559 
	C2295.911377,1150.761719 2273.930176,1141.092041 2265.831055,1120.559082 
	C2259.700195,1105.015991 2260.000488,1089.203125 2266.459473,1073.845459 
	C2273.058105,1058.155518 2288.183105,1049.312866 2305.697998,1050.065063 
	C2322.548828,1050.788818 2335.912842,1060.576538 2341.148193,1076.098755 
	C2341.544189,1077.273315 2341.537842,1078.583496 2341.802490,1080.410156 
	C2337.071777,1080.410156 2332.873535,1080.410156 2328.226318,1080.410156 
	C2327.349365,1078.899414 2326.264404,1077.250488 2325.393066,1075.495361 
	C2317.270508,1059.136230 2290.302490,1058.447632 2280.964600,1076.246216 
	C2273.519287,1090.437256 2273.587646,1105.280396 2280.897949,1119.399780 
	C2287.908203,1132.939331 2303.356201,1136.266235 2319.712891,1128.210205 
z"/>
<path fill="#3B3B3B" opacity="1.000000" stroke="none" 
	d="
M1624.050781,1332.099121 
	C1620.706543,1334.875977 1617.870972,1337.101196 1614.526245,1339.725952 
	C1620.803101,1351.335449 1627.108398,1362.997314 1633.708130,1375.203735 
	C1628.897461,1377.433716 1624.001099,1375.985840 1618.520386,1376.418945 
	C1612.251465,1364.989380 1605.902954,1353.414917 1599.527222,1341.790771 
	C1593.150879,1341.790771 1587.197144,1341.790771 1580.300537,1341.790771 
	C1580.300537,1352.880249 1580.300537,1364.031982 1580.300537,1375.789307 
	C1575.169678,1375.789307 1570.961914,1375.789307 1566.168945,1375.789307 
	C1566.168945,1345.588135 1566.168945,1315.131592 1566.168945,1284.230347 
	C1580.238647,1284.230347 1594.569946,1282.828003 1608.505249,1284.578003 
	C1626.789795,1286.873901 1635.982422,1306.678467 1628.594727,1324.729736 
	C1627.605103,1327.147827 1625.921509,1329.281982 1624.050781,1332.099121 
M1579.684814,1305.129272 
	C1579.684814,1312.954834 1579.684814,1320.780273 1579.684814,1328.630493 
	C1588.400757,1328.630493 1595.728882,1329.281494 1602.891846,1328.471558 
	C1612.632324,1327.370117 1616.658691,1321.947510 1616.516968,1312.143799 
	C1616.380981,1302.740234 1611.558594,1296.802979 1602.367554,1296.044067 
	C1595.183960,1295.450928 1587.912231,1295.925171 1579.685181,1295.925171 
	C1579.685181,1298.690796 1579.685181,1300.933350 1579.684814,1305.129272 
z"/>
<path fill="#3D3D3D" opacity="1.000000" stroke="none" 
	d="
M2261.037109,1321.075928 
	C2264.973145,1298.786987 2276.868408,1285.667480 2295.412354,1282.485107 
	C2316.119385,1278.931641 2335.684814,1290.872314 2341.845459,1311.261963 
	C2345.472900,1323.268433 2345.571777,1335.533691 2342.076904,1347.630859 
	C2336.526611,1366.842773 2321.020020,1378.274414 2301.440918,1377.886597 
	C2282.237793,1377.505981 2266.521729,1365.001587 2262.414062,1345.637817 
	C2260.788086,1337.973511 2261.320801,1329.851196 2261.037109,1321.075928 
M2301.252686,1364.725464 
	C2317.081299,1363.602051 2325.477051,1357.125488 2328.978271,1342.471802 
	C2331.165283,1333.318604 2331.148926,1323.996826 2328.216309,1314.898438 
	C2324.007812,1301.841919 2314.399170,1294.775024 2301.562744,1295.162231 
	C2289.131592,1295.536987 2279.470215,1303.657837 2276.153076,1316.637207 
	C2273.975098,1325.160522 2273.721191,1333.740845 2275.941162,1342.302612 
	C2279.141602,1354.645630 2286.093018,1363.065674 2301.252686,1364.725464 
z"/>
<path fill="#3D3D3D" opacity="1.000000" stroke="none" 
	d="
M1558.707764,1074.819824 
	C1569.812866,1054.218140 1587.690430,1045.977173 1607.922119,1051.590576 
	C1622.311279,1055.583008 1631.322510,1065.284912 1635.743896,1079.080322 
	C1639.572266,1091.026123 1639.593262,1103.342529 1636.119141,1115.461792 
	C1630.485840,1135.112915 1614.628540,1146.615112 1594.572021,1145.868042 
	C1575.515503,1145.158081 1560.363037,1132.135498 1556.024048,1112.785156 
	C1553.184326,1100.121216 1553.941406,1087.697754 1558.707764,1074.819824 
M1595.164917,1063.164795 
	C1581.726807,1063.997925 1574.002686,1071.820801 1570.325195,1084.063721 
	C1567.485962,1093.516113 1567.729248,1103.152100 1570.488159,1112.625977 
	C1574.087402,1124.985596 1583.720947,1132.510254 1595.925659,1132.749756 
	C1608.347412,1132.993774 1617.815918,1126.124390 1622.065674,1113.656006 
	C1625.156372,1104.588623 1625.129395,1095.250732 1623.139648,1086.079224 
	C1620.038086,1071.783203 1611.901123,1064.988525 1595.164917,1063.164795 
z"/>
<path fill="#3C3C3C" opacity="1.000000" stroke="none" 
	d="
M988.905457,1134.967896 
	C980.448853,1141.628540 971.372070,1144.352417 961.418579,1144.381226 
	C950.808350,1144.411987 940.197937,1144.388184 929.062744,1144.388184 
	C929.062744,1113.226562 929.062744,1082.809204 929.062744,1052.147949 
	C942.983948,1052.147949 956.700684,1050.934326 970.101807,1052.471680 
	C985.053772,1054.186768 995.907471,1063.302124 1000.451660,1077.997681 
	C1006.822083,1098.598755 1005.696533,1118.122437 988.905457,1134.967896 
M954.975647,1063.779297 
	C951.131287,1063.779297 947.286926,1063.779297 943.363586,1063.779297 
	C943.363586,1087.248291 943.363586,1109.341309 943.363586,1131.912964 
	C950.545288,1131.912964 957.178650,1132.361206 963.729858,1131.818115 
	C976.661743,1130.745972 984.880310,1123.345215 988.269592,1110.708008 
	C990.744812,1101.478882 990.566284,1092.283081 987.794373,1083.210205 
	C984.335266,1071.888428 976.446716,1065.611816 964.778137,1064.108521 
	C962.156433,1063.770752 959.477112,1063.879395 954.975647,1063.779297 
z"/>
<path fill="#3B3B3B" opacity="1.000000" stroke="none" 
	d="
M2330.254883,335.570496 
	C2316.124756,335.691284 2302.827637,335.691284 2288.889648,335.691284 
	C2288.889648,345.089935 2288.889648,353.808044 2288.889648,363.529297 
	C2302.481201,363.529297 2315.661621,363.529297 2329.216064,363.529297 
	C2329.216064,368.031128 2329.216064,371.534546 2329.216064,375.888214 
	C2315.513184,375.888214 2302.284180,375.888214 2288.656738,375.888214 
	C2288.656738,385.619720 2288.656738,394.495331 2288.656738,404.081879 
	C2303.287109,404.081879 2317.542236,404.081879 2332.774658,404.081879 
	C2332.971680,408.211212 2333.137695,411.687622 2333.334229,415.804108 
	C2313.492188,415.804108 2294.323975,415.804108 2274.591309,415.804108 
	C2274.591309,385.289246 2274.591309,354.816833 2274.591309,323.900787 
	C2293.633789,323.900787 2312.511230,323.900787 2332.675049,323.900787 
	C2332.115723,327.969971 2331.601807,331.709839 2330.254883,335.570496 
z"/>
<path fill="#3B3B3B" opacity="1.000000" stroke="none" 
	d="
M1590.371216,879.980896 
	C1586.118774,879.980896 1582.807983,879.980896 1578.724121,879.980896 
	C1575.713379,888.023132 1572.736206,895.975342 1569.703125,904.077148 
	C1565.079224,904.077148 1560.824707,904.077148 1555.015137,904.077148 
	C1566.159058,873.025269 1577.080688,842.592651 1588.095093,811.901978 
	C1593.727295,811.901978 1598.926636,811.901978 1604.825195,811.901978 
	C1615.784912,842.349487 1626.745239,872.798706 1637.966431,903.972412 
	C1632.389404,903.972412 1627.876709,903.972412 1623.072998,903.972412 
	C1620.215454,896.033752 1617.430298,888.296509 1614.437012,879.980896 
	C1606.513184,879.980896 1598.913086,879.980896 1590.371216,879.980896 
M1608.669067,862.619080 
	C1604.926758,851.784668 1601.184448,840.950317 1597.442261,830.115906 
	C1596.821045,830.052979 1596.199951,829.990051 1595.578735,829.927185 
	C1591.362915,842.229004 1587.147095,854.530823 1582.544189,867.962219 
	C1591.568604,867.962219 1599.129272,867.954468 1606.689819,867.966370 
	C1609.462524,867.970703 1609.991821,866.482117 1608.669067,862.619080 
z"/>
<path fill="#3D3D3D" opacity="1.000000" stroke="none" 
	d="
M996.947571,892.947021 
	C983.867371,906.151428 968.692749,909.046570 952.359985,903.312378 
	C935.996704,897.567566 928.002563,884.524963 925.714966,867.777954 
	C924.160583,856.398560 924.728699,845.204590 929.454163,834.496704 
	C939.310120,812.163879 966.213623,803.069702 987.375000,815.123108 
	C997.135620,820.682556 1003.285767,828.953430 1004.961487,841.116577 
	C1000.469971,841.116577 996.349915,841.116577 991.671936,841.116577 
	C991.267212,840.359314 990.549255,839.272217 990.074707,838.087524 
	C986.157959,828.309448 978.622681,823.734558 968.428650,823.232422 
	C958.309448,822.733948 949.731079,826.370178 944.848145,835.315552 
	C936.831482,850.001404 936.617249,865.394897 944.533325,880.184998 
	C949.537903,889.535217 958.343506,893.271118 968.892761,892.638794 
	C978.707642,892.050598 985.930298,887.570374 989.937744,878.372864 
	C990.453491,877.189026 991.034912,876.033875 991.615051,874.803772 
	C996.082764,874.803772 1000.254578,874.803772 1004.721252,874.803772 
	C1004.529602,882.037109 1001.290527,887.355774 996.947571,892.947021 
z"/>
<path fill="#3B3B3B" opacity="1.000000" stroke="none" 
	d="
M995.412231,1286.773071 
	C995.326965,1289.889648 995.198486,1292.177246 995.023376,1295.296143 
	C980.911072,1295.296143 967.059021,1295.296143 952.506409,1295.296143 
	C952.506409,1304.931030 952.506409,1313.730347 952.506409,1323.458008 
	C964.856506,1323.458008 977.320496,1323.458008 990.775940,1323.458008 
	C990.977844,1327.743530 991.139648,1331.176880 991.347961,1335.597656 
	C978.129517,1335.597656 965.640930,1335.597656 952.314575,1335.597656 
	C952.314575,1349.336670 952.314575,1362.174316 952.314575,1375.705566 
	C947.326721,1375.705566 943.168823,1375.705566 938.315674,1375.705566 
	C938.315674,1345.640381 938.315674,1315.193115 938.315674,1283.980103 
	C940.910339,1283.817627 943.768250,1283.495483 946.627441,1283.484009 
	C960.281189,1283.429443 973.937561,1283.331299 987.587341,1283.571411 
	C990.194336,1283.617310 992.775818,1285.115723 995.412231,1286.773071 
z"/>
<path fill="#3B3B3B" opacity="1.000000" stroke="none" 
	d="
M2309.718262,838.094055 
	C2309.718262,860.352356 2309.718262,881.618713 2309.718262,903.644409 
	C2305.073730,903.644409 2300.706299,903.644409 2295.713623,903.644409 
	C2295.713623,877.327454 2295.713623,851.145203 2295.713623,824.010559 
	C2285.990234,824.010559 2276.838379,824.010559 2266.826904,824.010559 
	C2266.599121,819.655029 2266.417969,816.191711 2266.202393,812.075439 
	C2290.256348,812.075439 2313.684570,812.075439 2337.761230,812.075439 
	C2337.761230,815.651611 2337.761230,819.402893 2337.761230,823.824341 
	C2328.481445,823.824341 2319.618164,823.824341 2309.718262,823.824341 
	C2309.718262,828.659241 2309.718262,832.880615 2309.718262,838.094055 
z"/>
<path fill="#3C3C3C" opacity="1.000000" stroke="none" 
	d="
M2982.392090,411.389221 
	C2982.391846,383.219604 2982.391846,355.979950 2982.391846,328.099091 
	C2986.972412,328.099091 2991.155273,328.099091 2996.302734,328.099091 
	C2996.302734,354.339203 2996.302734,380.779663 2996.302734,408.077087 
	C3010.709717,408.077087 3024.223389,408.077087 3037.956055,408.077087 
	C3038.364258,410.122192 3038.805420,411.372681 3038.822754,412.629028 
	C3038.854492,414.911102 3038.634033,417.196747 3038.495605,419.936890 
	C3020.014893,419.936890 3001.846924,419.936890 2982.944336,419.936890 
	C2982.755859,417.336670 2982.573975,414.827942 2982.392090,411.389221 
z"/>
<path fill="#BABABA" opacity="1.000000" stroke="none" 
	d="
M3160.000000,374.479736 
	C3191.532959,374.480316 3222.065674,374.480316 3252.745117,374.480316 
	C3253.070068,366.889313 3240.809814,365.262177 3245.847168,355.541901 
	C3248.381836,357.290741 3250.718018,358.409241 3252.416992,360.149872 
	C3273.436768,381.687347 3273.221680,374.818970 3252.044922,396.543335 
	C3250.396729,398.233948 3247.990723,399.185425 3245.059814,401.033356 
	C3242.987549,390.983704 3253.546631,389.652435 3254.751953,381.905212 
	C3246.361084,381.905212 3238.193115,381.905212 3230.024902,381.905212 
	C3221.706055,381.905212 3213.387451,381.905212 3205.068604,381.905212 
	C3196.750000,381.905212 3188.431152,381.905212 3180.112549,381.905212 
	C3172.126465,381.905212 3164.140625,381.905212 3156.154541,381.905212 
	C3147.835938,381.905212 3139.514893,382.026703 3131.199219,381.870575 
	C3123.088623,381.718323 3114.870361,382.673309 3106.384277,380.950684 
	C3106.963135,374.093872 3111.211182,374.503662 3115.077148,374.495209 
	C3129.718018,374.463226 3144.359131,374.480377 3160.000000,374.479736 
z"/>
<path fill="#BABABA" opacity="1.000000" stroke="none" 
	d="
M2552.354004,382.348450 
	C2547.769531,385.876373 2545.686035,391.738129 2538.910645,391.863770 
	C2536.803955,382.939545 2547.560059,381.703003 2548.699219,373.905212 
	C2539.061035,373.905212 2529.565918,373.905212 2520.070801,373.905212 
	C2510.074951,373.905212 2500.078857,373.905212 2490.083008,373.905212 
	C2480.420166,373.905212 2470.757568,373.905212 2461.094727,373.905212 
	C2451.098633,373.905212 2441.098389,374.088898 2431.107910,373.851959 
	C2421.685059,373.628510 2412.126465,374.941040 2400.566895,372.493988 
	C2403.451172,369.594269 2404.639160,367.398132 2406.290771,366.963318 
	C2409.112549,366.220337 2412.225098,366.493591 2415.215576,366.492157 
	C2455.865723,366.472443 2496.516113,366.478882 2537.166260,366.478851 
	C2540.362061,366.478821 2543.557617,366.478851 2547.221191,366.478851 
	C2546.182617,358.979645 2535.753418,357.161255 2539.003418,348.153625 
	C2541.172607,348.980469 2543.261230,349.204254 2544.497314,350.348724 
	C2549.383789,354.872894 2554.138428,359.558990 2558.683105,364.426727 
	C2563.338867,369.413239 2563.210205,371.001221 2558.503418,376.162659 
	C2556.708984,378.130371 2554.750977,379.948486 2552.354004,382.348450 
z"/>
<path fill="#BABABA" opacity="1.000000" stroke="none" 
	d="
M2533.687744,861.905029 
	C2491.201172,861.724792 2449.665283,861.549011 2408.129883,861.311096 
	C2407.652344,861.308411 2407.179443,860.500488 2405.782959,859.230713 
	C2407.079346,857.804077 2408.155518,855.557983 2409.738770,855.111511 
	C2412.535889,854.322754 2415.641846,854.500427 2418.618652,854.498230 
	C2458.186035,854.468872 2497.753174,854.488892 2537.320557,854.459106 
	C2540.487305,854.456726 2543.653809,854.177917 2547.164551,854.011292 
	C2546.093994,846.934875 2535.611816,845.167236 2539.149414,836.133057 
	C2541.235352,836.969910 2543.312256,837.239075 2544.555664,838.400696 
	C2549.654785,843.164673 2554.525879,848.174988 2559.427734,853.146851 
	C2562.011719,855.767578 2563.411377,858.896790 2560.484619,861.929138 
	C2554.724609,867.896790 2548.713379,873.627625 2542.656494,879.296631 
	C2541.949707,879.958374 2540.299561,879.612427 2538.428467,879.799316 
	C2537.855469,871.260010 2546.614014,869.465149 2549.022461,862.693481 
	C2544.241943,861.116333 2539.352539,862.261963 2533.687744,861.905029 
z"/>
<path fill="#BABABA" opacity="1.000000" stroke="none" 
	d="
M1817.934204,1326.479736 
	C1826.163574,1326.480469 1833.407104,1326.480469 1841.064331,1326.480469 
	C1840.351929,1319.059692 1830.017212,1317.194824 1832.795410,1308.283936 
	C1834.993286,1309.005371 1837.120728,1309.096680 1838.311157,1310.199585 
	C1843.441650,1314.952637 1848.314819,1319.984863 1853.245728,1324.950928 
	C1855.804810,1327.527954 1857.555298,1330.687012 1854.619995,1333.721802 
	C1848.624512,1339.920532 1842.251343,1345.757202 1835.923828,1351.624268 
	C1835.441284,1352.071655 1834.090698,1351.582642 1832.509399,1351.492920 
	C1831.671265,1343.231567 1840.508667,1341.470947 1843.007202,1334.806152 
	C1833.553223,1332.916992 1824.087524,1334.184326 1814.731445,1333.955322 
	C1805.405029,1333.726929 1796.068604,1333.905273 1786.736572,1333.905273 
	C1777.071289,1333.905273 1767.405884,1333.905273 1757.740601,1333.905273 
	C1748.408569,1333.905273 1739.076538,1333.905273 1729.744507,1333.905273 
	C1720.158203,1333.905273 1710.571899,1333.905273 1701.627319,1333.905273 
	C1699.244507,1329.325562 1701.029175,1327.483643 1704.012573,1326.924927 
	C1706.921753,1326.380127 1709.973389,1326.496338 1712.962769,1326.494263 
	C1747.624634,1326.470459 1782.286377,1326.479004 1817.934204,1326.479736 
z"/>
<path fill="#BABABA" opacity="1.000000" stroke="none" 
	d="
M1833.705566,843.868591 
	C1832.914917,841.222046 1832.583984,839.153442 1832.037720,835.738159 
	C1835.199463,836.972595 1837.280151,837.218628 1838.521973,838.369629 
	C1843.405640,842.896484 1848.162476,847.580261 1852.704956,852.449707 
	C1857.342651,857.420898 1857.265747,859.084595 1852.469238,864.172791 
	C1848.357178,868.534912 1844.129883,872.805603 1839.713013,876.854309 
	C1838.031494,878.395691 1835.679565,879.205627 1832.493164,880.985901 
	C1831.881592,871.240417 1840.722046,869.466919 1842.952637,862.585754 
	C1831.359009,861.139404 1819.897095,862.116455 1808.496582,861.945435 
	C1796.504517,861.765503 1784.507690,861.905090 1772.512939,861.905090 
	C1760.851440,861.905090 1749.189331,861.973999 1737.528442,861.885559 
	C1726.030884,861.798401 1714.497559,862.296509 1700.471191,861.410950 
	C1703.360840,857.920532 1704.350464,855.562500 1705.895996,855.112183 
	C1708.685059,854.299316 1711.806641,854.500427 1714.789429,854.498169 
	C1753.439087,854.468994 1792.088867,854.478699 1830.738525,854.478577 
	C1834.014160,854.478577 1837.289795,854.478577 1841.089722,854.478577 
	C1840.538696,849.189514 1836.377441,847.488770 1833.705566,843.868591 
z"/>
<path fill="#BABABA" opacity="1.000000" stroke="none" 
	d="
M3118.637207,1339.931885 
	C3119.722412,1337.679565 3120.954346,1335.345093 3122.698242,1334.862671 
	C3125.493652,1334.089478 3128.628418,1334.488281 3131.619629,1334.487183 
	C3168.878418,1334.474365 3206.137207,1334.490723 3243.395996,1334.458008 
	C3246.550781,1334.455200 3249.705322,1334.155273 3253.091797,1333.981567 
	C3252.112793,1326.873657 3241.459473,1325.177124 3245.225098,1316.201660 
	C3246.997314,1316.786743 3248.843018,1316.864258 3249.862549,1317.821655 
	C3255.193848,1322.828735 3260.343994,1328.031250 3265.500000,1333.222534 
	C3268.532227,1336.275757 3269.071289,1339.539551 3265.811279,1342.815063 
	C3260.649170,1348.001587 3255.545166,1353.254272 3250.182129,1358.225586 
	C3249.004395,1359.317139 3246.842773,1359.347046 3244.424316,1360.081299 
	C3243.910400,1351.235107 3252.726074,1349.461060 3254.956299,1342.528076 
	C3252.027588,1342.313232 3249.256592,1341.935791 3246.485107,1341.932983 
	C3207.562988,1341.893799 3168.640869,1341.937622 3129.718750,1341.852051 
	C3126.149658,1341.844238 3122.581787,1341.088989 3118.637207,1339.931885 
z"/>
<path fill="#BABABA" opacity="1.000000" stroke="none" 
	d="
M2480.000000,1094.479736 
	C2502.883789,1094.480347 2524.767822,1094.480347 2547.004150,1094.480347 
	C2546.417969,1086.985352 2535.848877,1085.229248 2538.893799,1076.262573 
	C2541.043945,1076.998779 2543.163330,1077.124878 2544.364502,1078.239990 
	C2549.490479,1082.997559 2554.365479,1088.026978 2559.290039,1092.998901 
	C2561.853027,1095.586548 2563.505859,1098.712036 2560.588379,1101.781982 
	C2554.861816,1107.807739 2548.822510,1113.541992 2542.764893,1119.239990 
	C2542.039795,1119.921997 2540.396240,1119.627808 2538.447021,1119.881226 
	C2537.805176,1111.283813 2546.473633,1109.415894 2549.288330,1102.209229 
	C2537.791260,1101.606445 2526.718994,1101.986938 2515.676025,1101.920898 
	C2504.012207,1101.851196 2492.347656,1101.905273 2480.683594,1101.905273 
	C2469.352783,1101.905273 2458.021729,1101.905273 2446.690918,1101.905273 
	C2435.445068,1101.905273 2424.199219,1101.905273 2410.538086,1101.905273 
	C2412.953857,1098.311035 2413.699707,1095.889160 2415.166260,1095.318481 
	C2417.531982,1094.397583 2420.371582,1094.515625 2423.011963,1094.507935 
	C2441.674561,1094.453613 2460.337402,1094.479126 2480.000000,1094.479736 
z"/>
<path fill="#BABABA" opacity="1.000000" stroke="none" 
	d="
M1854.303467,1094.134033 
	C1854.870605,1096.878906 1855.966064,1099.950439 1854.934448,1101.081055 
	C1849.122559,1107.449585 1842.849243,1113.404053 1836.578979,1119.336914 
	C1835.893311,1119.985962 1834.223877,1119.595215 1832.411133,1119.732056 
	C1831.893677,1111.241089 1840.712158,1109.464355 1842.958496,1102.590332 
	C1831.709839,1101.151123 1820.591431,1102.119141 1809.536133,1101.944824 
	C1798.221680,1101.766479 1786.902222,1101.905273 1775.584961,1101.905273 
	C1764.600586,1101.905273 1753.616211,1101.905273 1742.631836,1101.905273 
	C1731.402466,1101.905273 1720.173218,1101.905273 1709.595459,1101.905273 
	C1707.255615,1097.237549 1709.112793,1095.447388 1712.067261,1094.905640 
	C1714.976318,1094.372437 1718.023193,1094.495117 1721.009521,1094.493286 
	C1757.624146,1094.471069 1794.238892,1094.479004 1830.853516,1094.479004 
	C1834.101562,1094.479004 1837.349731,1094.478882 1840.743164,1094.478882 
	C1841.075317,1086.888306 1828.804077,1085.261475 1833.799683,1075.642090 
	C1842.372192,1080.069702 1847.322876,1087.754517 1854.303467,1094.134033 
z"/>
<path fill="#BABABA" opacity="1.000000" stroke="none" 
	d="
M2428.286621,1333.905029 
	C2424.338623,1333.886475 2421.281250,1334.228760 2418.382080,1333.700684 
	C2416.883545,1333.427979 2415.666748,1331.610352 2414.322754,1330.490723 
	C2415.662109,1329.233154 2416.833008,1327.228271 2418.377930,1326.879883 
	C2421.237793,1326.234497 2424.316650,1326.490601 2427.304443,1326.489258 
	C2463.874268,1326.473389 2500.444336,1326.479004 2537.014160,1326.479004 
	C2540.225830,1326.479004 2543.437256,1326.478882 2547.001465,1326.478882 
	C2546.415039,1318.985229 2535.877930,1317.245605 2538.876953,1308.297607 
	C2541.003906,1309.001709 2543.125488,1309.099976 2544.316162,1310.203125 
	C2549.433594,1314.944458 2554.286377,1319.971924 2559.217529,1324.913574 
	C2562.149902,1327.852539 2563.380371,1331.092773 2560.078613,1334.482056 
	C2554.744873,1339.957031 2549.327393,1345.356201 2543.763916,1350.595215 
	C2542.766113,1351.534790 2540.894775,1351.546753 2538.797607,1352.175781 
	C2537.134521,1343.026367 2547.508057,1341.600342 2548.815430,1333.905151 
	C2508.731934,1333.905151 2468.987305,1333.905151 2428.286621,1333.905029 
z"/>
<path fill="#BABABA" opacity="1.000000" stroke="none" 
	d="
M2885.953857,373.899109 
	C2843.052490,373.898926 2801.141602,373.937256 2759.230957,373.831573 
	C2755.572266,373.822357 2751.076172,375.416962 2748.263672,369.636444 
	C2750.142090,368.583191 2751.828613,367.212830 2753.747070,366.683289 
	C2755.608154,366.169586 2757.707764,366.493683 2759.702637,366.493469 
	C2805.937744,366.488464 2852.172852,366.446167 2898.407715,366.562286 
	C2902.605469,366.572845 2908.019043,364.691223 2910.304932,372.233459 
	C2902.530518,375.501770 2894.559570,373.190735 2885.953857,373.899109 
z"/>
<path fill="#BABABA" opacity="1.000000" stroke="none" 
	d="
M2092.000000,366.490295 
	C2125.261963,366.490356 2157.523926,366.474640 2189.785889,366.514587 
	C2192.757080,366.518250 2195.800049,366.561737 2198.664062,367.220367 
	C2199.867676,367.497162 2201.404053,369.387817 2201.464844,370.610687 
	C2201.513672,371.597931 2199.722168,373.294037 2198.485596,373.592133 
	C2196.275146,374.125000 2193.868164,373.891266 2191.543213,373.891754 
	C2145.644775,373.901581 2099.746094,373.931549 2053.847900,373.837799 
	C2050.140381,373.830231 2046.434448,372.956116 2042.483154,372.453583 
	C2043.549316,365.815247 2047.618408,366.537415 2051.088379,366.519867 
	C2064.391846,366.452606 2077.696045,366.490845 2092.000000,366.490295 
z"/>
<path fill="#BABABA" opacity="1.000000" stroke="none" 
	d="
M2198.729980,859.632874 
	C2195.096191,860.835510 2191.902344,861.823242 2188.706543,861.830322 
	C2143.449219,861.930969 2098.191406,861.926331 2052.933838,861.846741 
	C2049.274414,861.840332 2044.856445,863.154114 2042.136353,857.456970 
	C2044.301514,856.388794 2046.097656,855.278381 2048.046875,854.623840 
	C2049.248779,854.220215 2050.684082,854.493591 2052.014648,854.493469 
	C2097.937988,854.490173 2143.861084,854.461060 2189.784424,854.547180 
	C2193.415283,854.554016 2198.146240,853.052551 2198.729980,859.632874 
z"/>
<path fill="#BABABA" opacity="1.000000" stroke="none" 
	d="
M1374.003052,1326.490234 
	C1410.892334,1326.490356 1446.782715,1326.452026 1482.672729,1326.546997 
	C1486.369629,1326.556885 1490.777588,1325.151978 1493.795410,1330.691772 
	C1491.896973,1331.789551 1490.251709,1333.179565 1488.365356,1333.707397 
	C1486.509644,1334.226440 1484.409058,1333.895264 1482.416016,1333.895508 
	C1437.553223,1333.900146 1392.690186,1333.932129 1347.827637,1333.837402 
	C1344.130249,1333.829712 1340.434814,1332.953247 1336.660645,1332.470459 
	C1337.201172,1326.236084 1340.847656,1326.546143 1344.092651,1326.521362 
	C1353.729248,1326.447998 1363.366821,1326.491699 1374.003052,1326.490234 
z"/>
<path fill="#BABABA" opacity="1.000000" stroke="none" 
	d="
M1376.001709,861.898987 
	C1362.294067,860.714539 1349.129883,864.395264 1336.740723,859.808960 
	C1336.627197,859.018982 1336.513794,858.229065 1336.400269,857.439087 
	C1338.226685,856.481018 1339.960327,855.108582 1341.903809,854.674072 
	C1344.125610,854.177429 1346.534058,854.493225 1348.861328,854.492981 
	C1391.762817,854.488525 1434.664429,854.485962 1477.565918,854.498718 
	C1480.223511,854.499512 1483.003906,854.176758 1485.497681,854.852051 
	C1487.305908,855.341614 1488.734375,857.233459 1490.332275,858.500000 
	C1490.165161,859.279419 1489.997925,860.058899 1489.830811,860.838318 
	C1486.475708,861.191895 1483.121094,861.845276 1479.765259,861.852722 
	C1445.510742,861.928406 1411.255981,861.899048 1376.001709,861.898987 
z"/>
<path fill="#BABABA" opacity="1.000000" stroke="none" 
	d="
M2140.000000,1101.898926 
	C2110.424316,1101.898926 2081.848389,1101.953857 2053.273193,1101.830566 
	C2049.608154,1101.814819 2045.111328,1103.461914 2042.325562,1097.642578 
	C2044.111206,1096.617798 2045.778687,1095.226807 2047.686401,1094.689575 
	C2049.541016,1094.167603 2051.641846,1094.493896 2053.634521,1094.493652 
	C2096.498047,1094.488403 2139.361572,1094.453125 2182.224854,1094.554688 
	C2185.910889,1094.563354 2189.594727,1095.487671 2193.575439,1096.026733 
	C2192.387451,1102.648682 2188.305176,1101.852539 2184.860107,1101.868530 
	C2170.240479,1101.936401 2155.620117,1101.898315 2140.000000,1101.898926 
z"/>
<path fill="#BABABA" opacity="1.000000" stroke="none" 
	d="
M2840.000000,1326.490234 
	C2859.862793,1326.872437 2878.726074,1327.234253 2897.585938,1327.728882 
	C2898.169434,1327.744141 2898.716797,1329.135010 2899.941406,1330.761963 
	C2897.809814,1331.905029 2896.110352,1333.224121 2894.196533,1333.726685 
	C2892.326172,1334.217773 2890.237061,1333.895996 2888.244141,1333.896240 
	C2845.380615,1333.900024 2802.517090,1333.936035 2759.653809,1333.833252 
	C2755.982666,1333.824463 2752.313721,1332.888184 2748.713379,1332.392456 
	C2749.087158,1326.684692 2752.243408,1326.570068 2755.267090,1326.532959 
	C2762.243896,1326.447388 2769.222168,1326.490845 2776.199951,1326.490112 
	C2797.133301,1326.487793 2818.066650,1326.489380 2840.000000,1326.490234 
z"/>
<path fill="#BABABA" opacity="1.000000" stroke="none" 
	d="
M1408.000000,1094.490234 
	C1430.929321,1094.490479 1452.858643,1094.447754 1474.787720,1094.530884 
	C1478.515015,1094.544922 1482.827637,1093.354980 1485.930298,1098.712646 
	C1483.841553,1099.863525 1482.160767,1101.208008 1480.256104,1101.719727 
	C1478.390991,1102.220825 1476.298218,1101.895752 1474.305298,1101.895874 
	C1432.108032,1101.900024 1389.910767,1101.935791 1347.713745,1101.834595 
	C1344.030273,1101.825806 1340.348999,1100.910522 1336.438599,1100.385742 
	C1337.618896,1093.720093 1341.744751,1094.544434 1345.199463,1094.525391 
	C1359.486328,1094.446167 1373.773804,1094.490234 1388.061035,1094.489380 
	C1394.374023,1094.488892 1400.687012,1094.489502 1408.000000,1094.490234 
z"/>
<path fill="#BABABA" opacity="1.000000" stroke="none" 
	d="
M2153.997070,1333.898926 
	C2119.771729,1333.898804 2086.545410,1333.933350 2053.319092,1333.850586 
	C2049.601318,1333.841309 2045.249512,1335.171997 2042.111572,1329.802368 
	C2044.086914,1328.647217 2045.740112,1327.238281 2047.640625,1326.694824 
	C2049.491211,1326.165649 2051.594971,1326.494019 2053.587646,1326.493774 
	C2095.785156,1326.488281 2137.982422,1326.452881 2180.179688,1326.553467 
	C2183.877686,1326.562256 2187.573242,1327.471313 2191.233398,1327.957275 
	C2190.880615,1334.342041 2187.106201,1333.833496 2183.902832,1333.863159 
	C2174.267822,1333.952515 2164.631836,1333.897705 2153.997070,1333.898926 
z"/>
<path fill="#BBBBBB" opacity="1.000000" stroke="none" 
	d="
M1094.011841,1333.910156 
	C1083.574585,1333.560669 1074.034058,1334.684448 1064.311768,1333.138306 
	C1064.454590,1326.727295 1068.163330,1326.515137 1071.835083,1326.497681 
	C1083.822632,1326.440552 1095.810425,1326.471436 1107.798218,1326.469849 
	C1116.723755,1326.468750 1125.649292,1326.469604 1137.161621,1326.469604 
	C1133.382568,1322.243408 1131.100342,1319.687744 1128.814331,1317.135376 
	C1126.519165,1314.572876 1124.506470,1311.977417 1128.441772,1307.543335 
	C1131.000732,1309.595947 1133.571899,1311.386719 1135.818481,1313.519409 
	C1139.922119,1317.415405 1143.883545,1321.465576 1147.805908,1325.546021 
	C1150.090942,1327.922974 1151.266113,1330.971558 1148.753052,1333.575806 
	C1142.761108,1339.784912 1136.442749,1345.682373 1130.146118,1351.588257 
	C1129.634277,1352.068359 1128.281250,1351.651733 1126.788940,1351.651733 
	C1124.925781,1342.963135 1135.624756,1341.696533 1136.683838,1333.910156 
	C1122.671875,1333.910156 1108.840454,1333.910156 1094.011841,1333.910156 
z"/>
<path fill="#BBBBBB" opacity="1.000000" stroke="none" 
	d="
M1138.142822,1083.775879 
	C1141.694946,1087.349609 1144.782471,1090.369263 1147.761841,1093.491821 
	C1150.028564,1095.867676 1151.325317,1098.941650 1148.802490,1101.490479 
	C1142.547241,1107.809937 1135.901855,1113.744507 1129.348511,1119.763062 
	C1129.029053,1120.056641 1128.093140,1119.678711 1126.870361,1119.555786 
	C1124.878174,1111.014282 1135.293823,1109.640259 1136.812988,1102.257568 
	C1134.196533,1102.138428 1131.713013,1101.932251 1129.229004,1101.927368 
	C1113.621460,1101.896606 1098.013550,1101.976318 1082.406860,1101.858276 
	C1078.998047,1101.832520 1074.896729,1103.161255 1072.734131,1098.305298 
	C1074.110840,1093.671509 1078.131958,1094.513062 1081.586182,1094.498291 
	C1096.197266,1094.435547 1110.808716,1094.498535 1125.419800,1094.447266 
	C1128.566772,1094.436157 1131.712646,1094.142090 1135.083862,1093.966675 
	C1134.073730,1086.874390 1123.474609,1085.171997 1127.012451,1076.676880 
	C1132.671875,1075.934937 1134.368408,1080.860352 1138.142822,1083.775879 
z"/>
<path fill="#BBBBBB" opacity="1.000000" stroke="none" 
	d="
M1115.856201,854.470581 
	C1122.751831,854.471191 1128.675049,854.471191 1134.948608,854.471191 
	C1134.634766,847.068359 1123.391235,845.016479 1127.449341,835.258789 
	C1130.388184,837.286682 1132.726929,838.406494 1134.427612,840.148987 
	C1155.440430,861.678528 1155.235840,854.819519 1134.017456,876.577148 
	C1132.375977,878.260315 1129.962769,879.190979 1126.988647,881.044373 
	C1125.136719,871.050232 1135.273926,869.467346 1137.022095,861.910339 
	C1129.640991,861.910339 1122.782104,861.911560 1115.923218,861.910095 
	C1103.933350,861.907471 1091.940674,862.028687 1079.956299,861.769775 
	C1078.075928,861.729187 1074.848145,860.193787 1074.638306,858.946472 
	C1074.065430,855.542480 1077.145752,854.612000 1079.915527,854.580933 
	C1091.570557,854.450073 1103.227661,854.491577 1115.856201,854.470581 
z"/>
<path fill="#BBBBBB" opacity="1.000000" stroke="none" 
	d="
M1936.675049,474.614380 
	C1950.267090,461.088043 1948.603638,459.837677 1962.332153,474.084869 
	C1965.831665,477.716461 1971.077759,480.290894 1971.679443,486.661102 
	C1962.783447,490.845917 1961.268311,479.832214 1953.679443,479.014496 
	C1953.629517,483.824280 1953.875000,488.623871 1953.443726,493.361877 
	C1953.046021,497.728760 1955.806519,503.645142 1947.487915,505.971161 
	C1944.502930,496.429138 1947.224243,486.767395 1945.360107,475.883759 
	C1941.776245,479.256714 1939.136841,481.996674 1936.224121,484.405945 
	C1933.616699,486.562561 1931.461914,491.698944 1926.048462,485.960785 
	C1929.543335,482.217194 1932.857910,478.666748 1936.675049,474.614380 
z"/>
<path fill="#BBBBBB" opacity="1.000000" stroke="none" 
	d="
M1951.188965,724.889160 
	C1952.337646,737.475586 1952.932251,749.584534 1953.057373,761.698364 
	C1953.071777,763.106323 1950.485962,764.541077 1948.154419,766.943481 
	C1947.131714,763.944580 1946.231812,762.506287 1946.212036,761.055908 
	C1946.072388,750.806763 1946.068237,740.554871 1946.125977,730.304443 
	C1946.142334,727.398682 1945.739258,723.921082 1951.188965,724.889160 
z"/>
<path fill="#FAFAFA" opacity="1.000000" stroke="none" 
	d="
M1579.685059,1304.152588 
	C1579.685181,1300.933350 1579.685181,1298.690796 1579.685181,1295.925171 
	C1587.912231,1295.925171 1595.183960,1295.450928 1602.367554,1296.044067 
	C1611.558594,1296.802979 1616.380981,1302.740234 1616.516968,1312.143799 
	C1616.658691,1321.947510 1612.632324,1327.370117 1602.891846,1328.471558 
	C1595.728882,1329.281494 1588.400757,1328.630493 1579.684814,1328.630493 
	C1579.684814,1320.780273 1579.684814,1312.954834 1579.685059,1304.152588 
z"/>
<path fill="#FCFCFC" opacity="1.000000" stroke="none" 
	d="
M2300.398926,1364.645996 
	C2286.093018,1363.065674 2279.141602,1354.645630 2275.941162,1342.302612 
	C2273.721191,1333.740845 2273.975098,1325.160522 2276.153076,1316.637207 
	C2279.470215,1303.657837 2289.131592,1295.536987 2301.562744,1295.162231 
	C2314.399170,1294.775024 2324.007812,1301.841919 2328.216309,1314.898438 
	C2331.148926,1323.996826 2331.165283,1333.318604 2328.978271,1342.471802 
	C2325.477051,1357.125488 2317.081299,1363.602051 2300.398926,1364.645996 
z"/>
<path fill="#FCFCFC" opacity="1.000000" stroke="none" 
	d="
M1596.027588,1063.158936 
	C1611.901123,1064.988525 1620.038086,1071.783203 1623.139648,1086.079224 
	C1625.129395,1095.250732 1625.156372,1104.588623 1622.065674,1113.656006 
	C1617.815918,1126.124390 1608.347412,1132.993774 1595.925659,1132.749756 
	C1583.720947,1132.510254 1574.087402,1124.985596 1570.488159,1112.625977 
	C1567.729248,1103.152100 1567.485962,1093.516113 1570.325195,1084.063721 
	C1574.002686,1071.820801 1581.726807,1063.997925 1596.027588,1063.158936 
z"/>
<path fill="#F8F8F8" opacity="1.000000" stroke="none" 
	d="
M955.900024,1063.781006 
	C959.477112,1063.879395 962.156433,1063.770752 964.778137,1064.108521 
	C976.446716,1065.611816 984.335266,1071.888428 987.794373,1083.210205 
	C990.566284,1092.283081 990.744812,1101.478882 988.269592,1110.708008 
	C984.880310,1123.345215 976.661743,1130.745972 963.729858,1131.818115 
	C957.178650,1132.361206 950.545288,1131.912964 943.363586,1131.912964 
	C943.363586,1109.341309 943.363586,1087.248291 943.363586,1063.779297 
	C947.286926,1063.779297 951.131287,1063.779297 955.900024,1063.781006 
z"/>
<path fill="#F3F3F3" opacity="1.000000" stroke="none" 
	d="
M1608.990234,863.380615 
	C1609.991821,866.482117 1609.462524,867.970703 1606.689819,867.966370 
	C1599.129272,867.954468 1591.568604,867.962219 1582.544189,867.962219 
	C1587.147095,854.530823 1591.362915,842.229004 1595.578735,829.927185 
	C1596.199951,829.990051 1596.821045,830.052979 1597.442261,830.115906 
	C1601.184448,840.950317 1604.926758,851.784668 1608.990234,863.380615 
z"/>
</svg>